<?xml version="1.0" encoding="utf-8"?>
<svg version="1.1" id="Layer_1" xmlns="http://www.w3.org/2000/svg" xmlns:xlink="http://www.w3.org/1999/xlink" x="0px" y="0px"
	 viewBox="0 0 64 64" style="enable-background:new 0 0 64 64;" xml:space="preserve">
<style type="text/css">
	.clapperboard-rect{fill:none;}
</style>
<g>
	<path d="M1.7,21.1V55c0,3.3,2.7,6,6,6H57c3.3,0,6-2.7,6-6V21.1H1.7z M57,60H7.7c-2.8,0-5-2.2-5-5V27.7l5.6-5.6H15l-8.6,8.5h7.4
		l8.6-8.5H29l-8.6,8.5h7.4l8.6-8.5H43l-8.6,8.5h7.4l8.6-8.5H57l-8.6,8.5h7.4l6.2-6.2V55C62,57.8,59.7,60,57,60z"/>
	<path d="M39.1,16.9l23.5-2.4l-0.7-6.1c0-0.2-0.1-0.3-0.1-0.5l0-0.1c-0.4-1.9-1.7-3.4-3.3-4.2l0,0C57.7,3.2,56.9,3,55.9,3L56,3
		c-0.2,0-0.4,0-0.6,0l-2.6,0.3l0,0l-1.3,0.1L38.9,4.7l0,0l-7.4,0.8l0,0L25,6.2l0,0L17.6,7l0,0L6.4,8.1C5.2,8.3,4.1,8.8,3.2,9.5
		C3,9.6,2.9,9.7,2.7,9.9c-1.2,1.2-1.9,2.9-1.7,4.8l0.4,4.1l0.2,2l5.4-0.6l6.9-0.7l0,0l20.5-2.1l0,0L39.1,16.9z M61.5,13.6l-4.8,0.5
		L61,8.8L61.5,13.6z M55.5,4H56l0,0c0.7,0,1.3,0.1,1.9,0.4l-8.6,10.5l-6.5,0.7l9.1-11.1L55.5,4z M2.4,18.2l7.7-9.5l6.5-0.7L7.6,19.2
		l-5,0.5L2.4,18.2z M24.1,7.3l6.5-0.7l-9.1,11.1L15,18.4L24.1,7.3z M28.9,17L38,5.9l6.5-0.7l-9.1,11.1L28.9,17z"/>
</g>
<rect class="clapperboard-rect" width="64" height="64"/>
</svg>
