<?xml version="1.0" encoding="utf-8"?>
<!-- Generator: Adobe Illustrator 17.0.0, SVG Export Plug-In . SVG Version: 6.00 Build 0)  -->
<!DOCTYPE svg PUBLIC "-//W3C//DTD SVG 1.1//EN" "http://www.w3.org/Graphics/SVG/1.1/DTD/svg11.dtd">
<svg version="1.1" id="Layer_1" xmlns="http://www.w3.org/2000/svg" xmlns:xlink="http://www.w3.org/1999/xlink" x="0px" y="0px"
		viewBox="24.622 41.974 156.119 124.991"
	 enable-background="new 24.622 41.974 156.119 124.991" xml:space="preserve">
<g>
	<g>
		<path d="M54.634,57.171c8.168,0,14.814,6.266,14.814,14.814h15.197c0-17.097-13.463-30.011-30.011-30.011
			S24.622,54.888,24.622,71.985h15.197C39.819,63.437,46.466,57.171,54.634,57.171z"/>
	</g>
	<g>
		<path d="M150.73,57.171c8.168,0,14.814,6.266,14.814,14.814h15.197c0-17.097-13.463-30.011-30.011-30.011
			s-30.011,12.915-30.011,30.011h15.197C135.916,63.437,142.562,57.171,150.73,57.171z"/>
	</g>
	<g>
		<path d="M102.414,166.965c29.401,0,57.577-15.036,73.71-40l-12.765-8.248
			c-14.813,22.924-41.919,35.718-69.045,32.586c-21.145-2.438-40.699-14.621-52.308-32.586l-12.764,8.248
			c14.048,21.74,37.723,36.482,63.33,39.435C95.859,166.78,99.142,166.965,102.414,166.965z"/>
	</g>
</g>
</svg>
