<?xml version="1.0" encoding="utf-8"?>
<!-- Generator: Adobe Illustrator 21.0.2, SVG Export Plug-In . SVG Version: 6.00 Build 0)  -->
<svg version="1.1" id="Laag_1" xmlns="http://www.w3.org/2000/svg" xmlns:xlink="http://www.w3.org/1999/xlink" x="0px" y="0px"
	 viewBox="0 0 2299 337" style="enable-background:new 0 0 2299 337;" xml:space="preserve">
<style type="text/css">
	.st0{fill:#2979FF;}
	.st1{fill:#4839D8;}
	.st2{fill:#2020A0;}
</style>
<g>
	<path class="st0" d="M597.2,107.2c7.9,4.6,14,11.1,18.3,19.5c4.3,8.4,6.5,18.2,6.5,29.3v92.9h-54.4v-77.2c0-7.2-1.8-12.9-5.5-17.2
		c-3.7-4.3-8.6-6.5-14.7-6.5c-7,0.2-12.6,2.9-16.7,8.1c-4.1,5.2-6.2,12-6.2,20.5v72.4h-54.4v-77.2c0-7.2-1.8-12.9-5.5-17.2
		c-3.7-4.3-8.6-6.5-14.7-6.5c-7,0.2-12.6,2.9-16.8,8.1c-4.2,5.2-6.3,12-6.3,20.5v72.4h-54.4V102.4h54.4v22.3
		c5-7.9,11.4-14,19.1-18.2c7.7-4.2,16.5-6.3,26.4-6.3c11.3,0,21.2,2.8,29.6,8.3c8.4,5.6,14.6,13.4,18.6,23.4
		c4.7-10.2,11.3-18.1,19.8-23.6c8.5-5.5,18.4-8.2,29.7-8.2C580.2,100.3,589.3,102.6,597.2,107.2z"/>
	<path class="st0" d="M763.8,109.8c12.2,6.2,21.7,14.9,28.4,26.2c6.7,11.3,10.1,24.5,10.1,39.6c0,14.9-3.4,28-10.1,39.4
		c-6.7,11.4-16.2,20.2-28.4,26.4c-12.2,6.2-26.5,9.3-42.8,9.3c-16.3,0-30.6-3.1-42.9-9.3c-12.3-6.2-21.8-15-28.5-26.4
		c-6.7-11.4-10.1-24.5-10.1-39.4c0-15.1,3.4-28.3,10.1-39.6c6.7-11.3,16.2-20.1,28.5-26.2c12.3-6.2,26.6-9.3,42.9-9.3
		C737.3,100.6,751.6,103.7,763.8,109.8z M701.6,152.6c-4.8,6-7.3,13.9-7.3,23.6c0,9.9,2.4,17.8,7.3,23.7c4.8,5.9,11.3,8.9,19.4,8.9
		c7.9,0,14.3-3,19.1-8.9c4.8-5.9,7.3-13.8,7.3-23.7c0-9.7-2.4-17.5-7.3-23.6c-4.8-6-11.2-9-19.1-9
		C712.9,143.6,706.5,146.6,701.6,152.6z"/>
	<path class="st0" d="M923.9,241.9c-5.2,2.9-11.5,5.2-19,6.9c-7.4,1.7-14.9,2.6-22.5,2.6c-15.6,0-28.1-4.3-37.4-12.9
		c-9.3-8.6-14-20.4-14-35.3v-58.4h-20.2V110h20.2V69.3h54.1V110h36.1v34.7h-36.1v50.1c0,4.7,1.1,8.2,3.2,10.5
		c2.2,2.3,5.2,3.5,9.2,3.5c3.4,0,9-1.4,16.7-4.3L923.9,241.9z"/>
	<path class="st0" d="M991.8,40.5c5.2,5.2,7.8,11.9,7.8,20.2c0,8.3-2.6,15-7.8,20.2c-5.2,5.2-11.9,7.8-20.2,7.8
		c-8.3,0-15-2.6-20.3-7.8c-5.3-5.2-7.9-11.9-7.9-20.2c0-8.3,2.6-15,7.9-20.2c5.3-5.2,12.1-7.8,20.3-7.8
		C979.8,32.7,986.6,35.3,991.8,40.5z M944.7,102.4H999v146.4h-54.4V102.4z"/>
	<path class="st0" d="M1144.9,109.8c12.2,6.2,21.7,14.9,28.4,26.2c6.7,11.3,10.1,24.5,10.1,39.6c0,14.9-3.4,28-10.1,39.4
		c-6.7,11.4-16.2,20.2-28.4,26.4c-12.2,6.2-26.5,9.3-42.8,9.3c-16.3,0-30.6-3.1-42.9-9.3c-12.3-6.2-21.8-15-28.5-26.4
		c-6.7-11.4-10.1-24.5-10.1-39.4c0-15.1,3.4-28.3,10.1-39.6c6.7-11.3,16.2-20.1,28.5-26.2c12.3-6.2,26.6-9.3,42.9-9.3
		C1118.4,100.6,1132.7,103.7,1144.9,109.8z M1082.7,152.6c-4.8,6-7.3,13.9-7.3,23.6c0,9.9,2.4,17.8,7.3,23.7
		c4.8,5.9,11.3,8.9,19.4,8.9c7.9,0,14.3-3,19.1-8.9c4.8-5.9,7.3-13.8,7.3-23.7c0-9.7-2.4-17.5-7.3-23.6c-4.8-6-11.2-9-19.1-9
		C1094,143.6,1087.6,146.6,1082.7,152.6z"/>
	<path class="st0" d="M1333.4,107.2c8,4.6,14.2,11.1,18.6,19.5c4.4,8.4,6.6,18.2,6.6,29.3v92.9h-54.4v-77.2c0-7.2-1.9-12.9-5.8-17.2
		c-3.9-4.3-8.9-6.5-15.2-6.5c-7.4,0.2-13.2,2.9-17.5,8.1c-4.3,5.2-6.5,12-6.5,20.5v72.4h-54.4V102.4h54.4v22.6
		c5.2-8.1,11.7-14.2,19.5-18.4c7.8-4.2,16.8-6.3,27-6.3C1316.3,100.3,1325.5,102.6,1333.4,107.2z"/>
	<path class="st0" d="M1515.4,116c8.7-5.7,19.2-8.6,31.4-8.7v17c-14.9-0.2-26.9,4.2-35.9,13.1c-9.1,8.9-14.2,21-15.5,36.2v75.4h-18
		v-141h18v32.8C1500.1,129.9,1506.7,121.7,1515.4,116z"/>
	<path class="st0" d="M1680.8,128.2c11.5,13.9,16.8,32.6,15.9,56.1h-117.6c1.3,15.1,6.8,27.2,16.7,36.5c9.9,9.2,22.1,13.9,36.6,13.9
		c9,0,17.3-1.6,25-4.8c7.7-3.2,14.4-7.8,19.9-13.7l10.2,10.2c-6.8,7.4-15,13.1-24.6,17.1c-9.6,4-20.1,6.1-31.6,6.1
		c-13.6,0-25.8-3-36.3-9c-10.6-6-18.9-14.4-24.9-25.2c-6-10.8-9-23.1-9-36.9c0-13.6,3-25.9,9-36.7c6-10.9,14.3-19.3,24.9-25.3
		c10.6-6,22.5-9,35.8-9C1652.7,107.3,1669.3,114.2,1680.8,128.2z M1680.6,170.3c-0.9-14.7-5.8-26.4-14.7-35.1
		c-8.9-8.7-20.5-13.1-34.9-13.1c-14.2,0-26,4.4-35.5,13.2c-9.5,8.8-15,20.5-16.4,35H1680.6z"/>
	<path class="st0" d="M1822.9,248.9l-0.3-23.7c-5.6,8.3-12.8,14.4-21.8,18.4c-9,4-19.3,6.1-31,6.1c-9.5,0-17.9-1.8-25.2-5.5
		c-7.3-3.7-12.9-8.7-16.8-15.2c-3.9-6.5-5.9-13.7-5.9-21.8c0-12.2,4.7-21.8,14.1-28.8s22.4-10.5,38.9-10.5h47.4v-10.8
		c0-11.1-3.3-19.7-10-25.8c-6.6-6.1-16.3-9.2-29.1-9.2c-15.1,0-30.2,5.7-45.5,17l-8.1-12.4c9.5-6.6,18.6-11.5,27.2-14.7
		c8.6-3.1,18.5-4.7,29.6-4.7c17,0,30.2,4.3,39.6,12.8c9.3,8.5,14.1,20.3,14.3,35.4l0.3,93.4H1822.9z M1805,225.9
		c8.7-5.8,14.6-14,17.6-24.6v-19.4h-45.5c-12.4,0-21.8,2.1-28.3,6.2c-6.5,4.1-9.7,10.3-9.7,18.6c0,8.4,3.1,15.2,9.3,20.3
		c6.2,5.1,14.4,7.7,24.6,7.7C1785.7,234.6,1796.3,231.7,1805,225.9z"/>
	<path class="st0" d="M2017.3,49.2v199.7h-18v-32.3c-5.4,10.6-12.9,18.8-22.6,24.6c-9.7,5.8-21,8.7-33.9,8.7
		c-13.3,0-25.1-3-35.5-9.2c-10.4-6.1-18.5-14.6-24.2-25.6c-5.7-10.9-8.6-23.3-8.6-37.1c0-13.8,2.9-26.1,8.7-36.9
		c5.8-10.8,13.9-19.2,24.2-25.3c10.3-6.1,22-9.2,35.1-9.2c12.9,0,24.3,3,34,8.9c9.8,5.9,17.4,14.2,22.7,24.8V49.2H2017.3z
		 M1973.4,227.2c8.1-4.8,14.4-11.3,19-19.8c4.6-8.4,6.9-18,6.9-28.8c0-10.8-2.3-20.4-6.9-28.9c-4.6-8.5-10.9-15.2-19-20.1
		c-8.1-4.8-17.2-7.3-27.5-7.3s-19.4,2.4-27.5,7.3c-8.1,4.8-14.4,11.5-19.1,20.1c-4.7,8.5-7,18.2-7,28.9c0,10.8,2.3,20.4,6.9,28.8
		c4.6,8.4,10.9,15,19.1,19.8c8.2,4.8,17.4,7.1,27.6,7.1S1965.3,232,1973.4,227.2z"/>
	<path class="st0" d="M2176.3,128.2c11.5,13.9,16.8,32.6,15.9,56.1h-117.6c1.3,15.1,6.8,27.2,16.7,36.5c9.9,9.2,22.1,13.9,36.6,13.9
		c9,0,17.3-1.6,25-4.8c7.7-3.2,14.4-7.8,19.9-13.7l10.2,10.2c-6.8,7.4-15,13.1-24.6,17.1c-9.6,4-20.1,6.1-31.6,6.1
		c-13.6,0-25.8-3-36.3-9c-10.6-6-18.9-14.4-24.9-25.2c-6-10.8-9-23.1-9-36.9c0-13.6,3-25.9,9-36.7c6-10.9,14.3-19.3,24.9-25.3
		c10.6-6,22.5-9,35.8-9C2148.2,107.3,2164.8,114.2,2176.3,128.2z M2176.1,170.3c-0.9-14.7-5.8-26.4-14.7-35.1
		c-8.9-8.7-20.5-13.1-34.9-13.1c-14.2,0-26,4.4-35.5,13.2c-9.5,8.8-15,20.5-16.4,35H2176.1z"/>
	<path class="st0" d="M2268,116c8.7-5.7,19.2-8.6,31.4-8.7v17c-14.9-0.2-26.9,4.2-35.9,13.1c-9.1,8.9-14.2,21-15.5,36.2v75.4h-18
		v-141h18v32.8C2252.6,129.9,2259.3,121.7,2268,116z"/>
</g>
<g>
	<path class="st0" d="M58.8,115.1c29.6,0,53.5,24,53.5,53.5c0-43.3,37.2-73.5,70.5-73.5c10.3,0,13.9,0.5,22.4,2.6
		c9.7,2.3,16.1,8.7,16,15.9c-0.2,7.2-6.6,12.8-17.3,14.8c-0.2,0-0.7,0.2-1.4,0.4c-3.9,1.1-13,3.7-20,3.7
		c-20.5,0-37.8,16.3-37.8,35.6c0,22.8,17.2,39.3,40.9,39.3c55.3-2.7,90.3-18,116.9-51.2c20.9-26.1,24-71.7-10.7-108.3
		C262.5,17.1,220.6,0,173.9,0C80.9,0,5.3,75.7,5.3,168.7C5.3,139.1,29.2,115.1,58.8,115.1z"/>
	<path class="st1" d="M311.4,237.2c-10.3-17.2-28.1-20.8-41.3-20.8c-12.5,0-26.2,3.3-38.7,9.4c-14.8,7.2-30.8,11-46.5,11
		c-19.8,0-37.8-6.1-50.8-17.3c-14.3-12.3-21.8-29.8-21.8-50.9c0,29.6-24,53.5-53.5,53.5s-53.5-24-53.5-53.5
		c0,93,75.7,168.7,168.7,168.7c1.3,0,2.7,0,4.1,0l0.7,0c2.4,0,5.1,0.1,8,0.1c22.6,0,57.8-3,101.8-29.3c13.2-7.9,22.9-19.1,27.3-31.7
		C320.3,263.2,318.8,249.7,311.4,237.2z"/>
	<path class="st2" d="M58.8,222.2c29.6,0,53.5-24,53.5-53.5s-24-53.5-53.5-53.5s-53.5,24-53.5,53.5S29.2,222.2,58.8,222.2z"/>
</g>
<circle class="st2" cx="1420" cy="180" r="23"/>
</svg>
