<?xml version="1.0" encoding="iso-8859-1"?>
<!-- Generator: Adobe Illustrator 17.0.0, SVG Export Plug-In . SVG Version: 6.00 Build 0)  -->
<!DOCTYPE svg PUBLIC "-//W3C//DTD SVG 1.1//EN" "http://www.w3.org/Graphics/SVG/1.1/DTD/svg11.dtd">
<svg version="1.1" id="Layer_1" xmlns="http://www.w3.org/2000/svg" xmlns:xlink="http://www.w3.org/1999/xlink" x="0px" y="0px"
	viewBox="0 0 300 125" style="enable-background:new 0 0 300 125;" xml:space="preserve">
<rect style="fill:#3D79FF;" width="300" height="125"/>
<g>
	<path style="fill:#FFFFFF;" d="M152.499,34.943h-11.933v-3.707h27.878v3.707H156.51v31.839h-4.011V34.943z"/>
	<path style="fill:#FFFFFF;" d="M179.298,31.236h4.011v35.546h-4.011V31.236z"/>
	<path style="fill:#FFFFFF;" d="M244.429,31.236h3.758l22.393,28.487V31.236h3.91v35.546h-3.199l-22.952-29.148v29.148h-3.91
		L244.429,31.236L244.429,31.236z"/>
</g>
<g>
	<path style="fill:#FFFFFF;" d="M22.998,31.236h25.694v3.605H27.01v12.238h19.398v3.605H27.01v12.492h21.937v3.605H22.998V31.236z"
		/>
	<path style="fill:#FFFFFF;" d="M57.02,31.236h4.062L74.03,50.634l12.95-19.398h4.062v35.546h-4.011V37.989L74.082,57.031h-0.203
		L60.93,38.041v28.741h-3.91V31.236z"/>
</g>
<g>
	<path style="fill:#FFFFFF;" d="M157.37,76.389h8.594c1.237,0,2.336,0.176,3.298,0.528c0.962,0.353,1.756,0.842,2.385,1.47
		c0.494,0.495,0.876,1.076,1.142,1.742c0.266,0.667,0.4,1.399,0.4,2.199v0.057c0,0.838-0.134,1.585-0.4,2.241
		c-0.266,0.657-0.643,1.227-1.128,1.713c-0.485,0.485-1.062,0.884-1.727,1.199c-0.667,0.314-1.39,0.538-2.17,0.671l6.139,8.166
		h-2.77l-5.796-7.766h-0.056h-5.653v7.766h-2.255L157.37,76.389L157.37,76.389z M165.78,86.581c0.744,0,1.43-0.095,2.061-0.286
		c0.63-0.19,1.174-0.461,1.632-0.813c0.458-0.352,0.815-0.78,1.073-1.285s0.386-1.081,0.386-1.727v-0.057
		c0-1.237-0.449-2.203-1.346-2.898c-0.896-0.694-2.156-1.042-3.778-1.042h-6.183v8.109L165.78,86.581L165.78,86.581z"/>
	<path style="fill:#FFFFFF;" d="M178.014,76.389h14.447v2.027h-12.192v6.881h10.908v2.027h-10.908v7.024h12.335v2.027h-14.59
		L178.014,76.389L178.014,76.389z"/>
	<path style="fill:#FFFFFF;" d="M204.538,76.245h2.113l9.108,20.129h-2.427l-2.341-5.283h-10.879l-2.37,5.283h-2.313L204.538,76.245
		z M210.105,89.066l-4.54-10.193l-4.568,10.193H210.105z"/>
	<path style="fill:#FFFFFF;" d="M219.7,76.389h6.938c1.56,0,2.993,0.253,4.297,0.757c1.303,0.504,2.428,1.203,3.369,2.099
		c0.942,0.894,1.67,1.946,2.184,3.155s0.771,2.518,0.771,3.926v0.056c0,1.409-0.257,2.723-0.771,3.94
		c-0.514,1.218-1.242,2.275-2.184,3.169s-2.066,1.599-3.369,2.113c-1.304,0.514-2.737,0.771-4.297,0.771H219.7V76.389z
		 M226.638,94.29c1.256,0,2.398-0.2,3.426-0.599c1.028-0.4,1.899-0.952,2.613-1.656c0.714-0.704,1.266-1.536,1.656-2.498
		c0.389-0.961,0.585-1.994,0.585-3.098v-0.057c0-1.103-0.196-2.136-0.585-3.098c-0.391-0.962-0.942-1.8-1.656-2.513
		c-0.714-0.714-1.585-1.275-2.613-1.685c-1.028-0.409-2.17-0.614-3.426-0.614h-4.683v15.818
		C221.955,94.291,226.638,94.291,226.638,94.29z"/>
	<path style="fill:#FFFFFF;" d="M242.028,76.389h14.447v2.027h-12.192v6.881h10.908v2.027h-10.908v7.024h12.335v2.027h-14.59
		L242.028,76.389L242.028,76.389z"/>
	<path style="fill:#FFFFFF;" d="M261.157,76.389h8.594c1.237,0,2.336,0.176,3.298,0.528c0.962,0.352,1.756,0.842,2.385,1.47
		c0.494,0.495,0.876,1.076,1.142,1.742c0.266,0.667,0.4,1.399,0.4,2.199v0.057c0,0.838-0.134,1.585-0.4,2.241
		c-0.266,0.657-0.643,1.227-1.128,1.713c-0.485,0.485-1.062,0.884-1.727,1.199c-0.667,0.314-1.39,0.538-2.17,0.671l6.139,8.166
		h-2.77l-5.796-7.766h-0.057h-5.653v7.766h-2.255L261.157,76.389L261.157,76.389z M269.568,86.581c0.744,0,1.43-0.095,2.061-0.286
		c0.63-0.19,1.174-0.461,1.632-0.813c0.458-0.352,0.815-0.78,1.073-1.285s0.386-1.081,0.386-1.727v-0.057
		c0-1.237-0.449-2.203-1.346-2.898c-0.896-0.694-2.156-1.042-3.778-1.042h-6.183v8.109L269.568,86.581L269.568,86.581z"/>
</g>
<g>
	<path style="fill:#FFFFFF;" d="M119.302,67.391c-2.709,0-5.172-0.491-7.388-1.473c-2.217-0.981-4.122-2.31-5.713-3.986
		c-1.592-1.676-2.818-3.622-3.682-5.84c-0.863-2.217-1.295-4.545-1.295-6.982v-0.102c0-2.437,0.44-4.773,1.32-7.007
		s2.115-4.19,3.707-5.865c1.591-1.676,3.504-3.013,5.738-4.012c2.234-0.998,4.705-1.498,7.414-1.498
		c2.708,0,5.171,0.491,7.388,1.473s4.121,2.31,5.713,3.986c1.591,1.676,2.818,3.623,3.682,5.84c0.863,2.218,1.295,4.545,1.295,6.982
		c0.033,0.034,0.033,0.068,0,0.102c0,2.437-0.44,4.773-1.32,7.008c-0.881,2.234-2.116,4.189-3.707,5.865
		c-1.592,1.676-3.504,3.014-5.738,4.012C124.481,66.891,122.01,67.391,119.302,67.391z M119.403,63.683
		c2.031,0,3.901-0.381,5.611-1.143c1.709-0.762,3.174-1.802,4.392-3.123c1.219-1.32,2.175-2.86,2.869-4.621
		c0.694-1.76,1.041-3.656,1.041-5.687v-0.102c0-2.031-0.347-3.935-1.041-5.713s-1.668-3.326-2.92-4.646
		c-1.253-1.32-2.734-2.369-4.443-3.148c-1.71-0.779-3.58-1.168-5.611-1.168c-2.031,0-3.902,0.381-5.611,1.143
		c-1.71,0.762-3.174,1.803-4.392,3.123s-2.176,2.861-2.869,4.621c-0.694,1.761-1.041,3.656-1.041,5.687v0.102
		c0,2.031,0.347,3.936,1.041,5.713c0.693,1.777,1.667,3.326,2.92,4.646c1.252,1.32,2.733,2.37,4.443,3.149
		C115.501,63.294,117.372,63.683,119.403,63.683z"/>
</g>
<g>
	<g>
		<path style="fill:#FFFFFF;" d="M202.205,35.882c2.304,0,4.179,1.768,4.179,4.179h4.287c0-4.823-3.798-8.466-8.466-8.466
			s-8.466,3.643-8.466,8.466h4.287C198.026,37.649,199.901,35.882,202.205,35.882z"/>
	</g>
	<g>
		<path style="fill:#FFFFFF;" d="M229.313,35.882c2.304,0,4.179,1.768,4.179,4.179h4.287c0-4.823-3.798-8.466-8.466-8.466
			s-8.466,3.643-8.466,8.466h4.287C225.134,37.649,227.008,35.882,229.313,35.882z"/>
	</g>
	<g>
		<path style="fill:#FFFFFF;" d="M215.683,66.854c8.294,0,16.242-4.241,20.793-11.283l-3.601-2.327
			c-4.179,6.467-11.825,10.076-19.477,9.192c-5.965-0.688-11.481-4.124-14.756-9.192l-3.6,2.327
			c3.963,6.133,10.641,10.291,17.865,11.124C213.834,66.801,214.76,66.854,215.683,66.854z"/>
	</g>
</g>
</svg>
