<?xml version="1.0" encoding="UTF-8" standalone="no"?>
<svg
   xmlns:dc="http://purl.org/dc/elements/1.1/"
   xmlns:cc="http://creativecommons.org/ns#"
   xmlns:rdf="http://www.w3.org/1999/02/22-rdf-syntax-ns#"
   xmlns:svg="http://www.w3.org/2000/svg"
   xmlns="http://www.w3.org/2000/svg"
   viewBox="0 0 1587.4 1122.52"
   height="1122.52"
   width="1587.4"
   xml:space="preserve"
   id="svg2"
   version="1.1"><metadata
     id="metadata8"><rdf:RDF><cc:Work
         rdf:about=""><dc:format>image/svg+xml</dc:format><dc:type
           rdf:resource="http://purl.org/dc/dcmitype/StillImage" /></cc:Work></rdf:RDF></metadata><defs
     id="defs6"><clipPath
       id="clipPath36"
       clipPathUnits="userSpaceOnUse"><path
         id="path34"
         d="M 0,841.89 H 1190.55 V 0 H 0 Z" /></clipPath></defs><g
     transform="matrix(1.3333333,0,0,-1.3333333,0,1122.52)"
     id="g10"><g
       transform="translate(610.9471,519.4301)"
       id="g12"><path
         id="path14"
         style="fill:#3d79ff;fill-opacity:1;fill-rule:nonzero;stroke:none"
         d="M 0,0 H -47.239 V 14.675 H 63.121 V 0 H 15.88 V -126.039 H 0 Z" /></g><path
       id="path16"
       style="fill:#3d79ff;fill-opacity:1;fill-rule:nonzero;stroke:none"
       d="m 705.424,534.105 h 15.88 V 393.391 h -15.88 z" /><g
       transform="translate(980.3791,534.1052)"
       id="g18"><path
         id="path20"
         style="fill:#3d79ff;fill-opacity:1;fill-rule:nonzero;stroke:none"
         d="m 0,0 h 14.876 l 88.647,-112.772 V 0 h 15.479 V -140.714 H 106.338 L 15.479,-25.328 V -140.714 H 0 Z" /></g><g
       transform="translate(89.5605,534.1052)"
       id="g22"><path
         id="path24"
         style="fill:#3d79ff;fill-opacity:1;fill-rule:nonzero;stroke:none"
         d="M 0,0 H 101.714 V -14.273 H 15.88 V -62.718 H 92.668 V -76.99 H 15.88 v -49.451 h 86.84 v -14.273 H 0 Z" /></g><g
       transform="translate(224.2417,534.1052)"
       id="g26"><path
         id="path28"
         style="fill:#3d79ff;fill-opacity:1;fill-rule:nonzero;stroke:none"
         d="M 0,0 H 16.082 L 67.34,-76.79 118.6,0 h 16.081 v -140.714 h -15.88 V -26.736 L 67.542,-102.118 H 66.737 L 15.478,-26.936 V -140.714 H 0 Z" /></g><g
       id="g30"><g
         clip-path="url(#clipPath36)"
         id="g32"><g
           transform="translate(803.6835,515.7117)"
           id="g38"><path
             id="path40"
             style="fill:#3d79ff;fill-opacity:1;fill-rule:nonzero;stroke:none"
             d="M 0,0 C 9.122,0 16.543,-6.997 16.543,-16.543 H 33.514 C 33.514,2.549 18.48,16.971 0,16.971 c -18.48,0 -33.514,-14.422 -33.514,-33.514 h 16.971 C -16.543,-6.997 -9.121,0 0,0" /></g><g
           transform="translate(910.9944,515.7117)"
           id="g42"><path
             id="path44"
             style="fill:#3d79ff;fill-opacity:1;fill-rule:nonzero;stroke:none"
             d="M 0,0 C 9.122,0 16.543,-6.997 16.543,-16.543 H 33.514 C 33.514,2.549 18.48,16.971 0,16.971 c -18.48,0 -33.514,-14.422 -33.514,-33.514 h 16.971 C -16.543,-6.997 -9.122,0 0,0" /></g><g
           transform="translate(857.0399,393.1051)"
           id="g46"><path
             id="path48"
             style="fill:#3d79ff;fill-opacity:1;fill-rule:nonzero;stroke:none"
             d="M 0,0 C 32.832,0 64.296,16.79 82.311,44.667 L 68.057,53.878 C 51.515,28.279 21.246,13.992 -9.045,17.489 -32.658,20.212 -54.493,33.816 -67.458,53.878 L -81.711,44.667 C -66.024,20.39 -39.586,3.929 -10.99,0.631 -7.32,0.207 -3.654,0 0,0" /></g><g
           transform="translate(658.4178,314.6084)"
           id="g50"><path
             id="path52"
             style="fill:#3d79ff;fill-opacity:1;fill-rule:nonzero;stroke:none"
             d="m 0,0 c 2.974,0 5.718,0.379 8.236,1.142 2.517,0.759 4.692,1.842 6.523,3.252 1.83,1.406 3.259,3.119 4.289,5.134 1.031,2.017 1.545,4.319 1.545,6.905 v 0.229 c 0,4.945 -1.793,8.806 -5.378,11.584 C 11.632,31.021 6.597,32.41 0.114,32.41 H -24.6 V 0 Z m -33.614,40.742 h 34.35 c 4.944,0 9.338,-0.704 13.18,-2.112 3.842,-1.408 7.021,-3.366 9.531,-5.876 1.977,-1.979 3.498,-4.3 4.565,-6.962 1.064,-2.663 1.597,-5.593 1.597,-8.788 v -0.228 c 0,-3.349 -0.533,-6.333 -1.597,-8.959 C 26.945,5.193 25.443,2.911 23.504,0.969 21.563,-0.969 19.261,-2.567 16.599,-3.823 13.935,-5.079 11.044,-5.973 7.927,-6.504 l 24.536,-32.64 H 21.392 L -1.775,-8.104 H -2.002 -24.6 v -31.04 h -9.014 z" /></g><g
           transform="translate(707.3135,355.3499)"
           id="g54"><path
             id="path56"
             style="fill:#3d79ff;fill-opacity:1;fill-rule:nonzero;stroke:none"
             d="M 0,0 H 57.745 V -8.102 H 9.014 v -27.503 h 43.595 v -8.104 H 9.014 v -28.073 h 49.3 v -8.103 H 0 Z" /></g><g
           transform="translate(835.5847,304.6796)"
           id="g58"><path
             id="path60"
             style="fill:#3d79ff;fill-opacity:1;fill-rule:nonzero;stroke:none"
             d="M 0,0 -18.146,40.741 -36.404,0 Z m -22.254,51.241 h 8.445 L 22.595,-29.215 H 12.896 L 3.539,-8.102 h -43.482 l -9.471,-21.113 h -9.244 z" /></g><g
           transform="translate(901.6614,283.7957)"
           id="g62"><path
             id="path64"
             style="fill:#3d79ff;fill-opacity:1;fill-rule:nonzero;stroke:none"
             d="m 0,0 c 5.02,0 9.585,0.799 13.693,2.396 4.11,1.598 7.589,3.804 10.443,6.62 2.854,2.814 5.058,6.142 6.62,9.986 1.557,3.84 2.339,7.969 2.339,12.382 v 0.227 c 0,4.412 -0.782,8.54 -2.339,12.382 -1.562,3.843 -3.766,7.192 -6.62,10.043 C 21.282,56.89 17.803,59.132 13.693,60.77 9.585,62.405 5.02,63.223 0,63.223 H -18.717 V 0 Z M -27.731,71.554 H 0 c 6.236,0 11.963,-1.009 17.175,-3.024 5.21,-2.017 9.701,-4.812 13.467,-8.388 3.764,-3.577 6.675,-7.779 8.73,-12.61 2.054,-4.833 3.081,-10.064 3.081,-15.693 V 31.611 C 42.453,25.98 41.426,20.73 39.372,15.864 37.317,10.993 34.406,6.77 30.642,3.195 26.876,-0.382 22.385,-3.195 17.175,-5.25 11.963,-7.305 6.236,-8.331 0,-8.331 h -27.731 z" /></g><g
           transform="translate(963.173,355.3499)"
           id="g66"><path
             id="path68"
             style="fill:#3d79ff;fill-opacity:1;fill-rule:nonzero;stroke:none"
             d="M 0,0 H 57.745 V -8.102 H 9.014 v -27.503 h 43.595 v -8.104 H 9.014 v -28.073 h 49.3 v -8.103 H 0 Z" /></g><g
           transform="translate(1073.2473,314.6084)"
           id="g70"><path
             id="path72"
             style="fill:#3d79ff;fill-opacity:1;fill-rule:nonzero;stroke:none"
             d="m 0,0 c 2.974,0 5.718,0.379 8.236,1.142 2.517,0.759 4.692,1.842 6.523,3.252 1.83,1.406 3.259,3.119 4.289,5.134 1.031,2.017 1.545,4.319 1.545,6.905 v 0.229 c 0,4.945 -1.793,8.806 -5.378,11.584 C 11.632,31.021 6.597,32.41 0.114,32.41 H -24.6 V 0 Z m -33.614,40.742 h 34.35 c 4.944,0 9.338,-0.704 13.18,-2.112 3.842,-1.408 7.021,-3.366 9.531,-5.876 1.977,-1.979 3.498,-4.3 4.565,-6.962 1.064,-2.663 1.597,-5.593 1.597,-8.788 v -0.228 c 0,-3.349 -0.533,-6.333 -1.597,-8.959 C 26.945,5.193 25.443,2.911 23.504,0.969 21.563,-0.969 19.261,-2.567 16.599,-3.823 13.935,-5.079 11.044,-5.973 7.927,-6.504 l 24.536,-32.64 H 21.392 L -1.775,-8.104 H -2.002 -24.6 v -31.04 h -9.014 z" /></g><g
           transform="translate(468.1382,405.656)"
           id="g74"><path
             id="path76"
             style="fill:#3d79ff;fill-opacity:1;fill-rule:nonzero;stroke:none"
             d="m 0,0 c 8.041,0 15.444,1.507 22.213,4.523 6.765,3.015 12.564,7.135 17.388,12.362 4.825,5.227 8.609,11.323 11.357,18.293 2.746,6.967 4.121,14.473 4.121,22.514 v 0.403 c 0,8.04 -1.375,15.578 -4.121,22.614 -2.748,7.036 -6.602,13.166 -11.559,18.393 -4.958,5.227 -10.823,9.379 -17.588,12.463 -6.768,3.082 -14.171,4.624 -22.212,4.624 -8.041,0 -15.447,-1.507 -22.213,-4.523 -6.769,-3.016 -12.564,-7.136 -17.388,-12.362 -4.824,-5.227 -8.613,-11.327 -11.357,-18.294 -2.748,-6.969 -4.121,-14.472 -4.121,-22.513 v -0.402 c 0,-8.041 1.373,-15.58 4.121,-22.616 2.744,-7.035 6.598,-13.166 11.558,-18.392 4.956,-5.227 10.82,-9.382 17.589,-12.464 C -15.446,1.54 -8.04,0 0,0 m -0.401,-14.674 c -10.724,0 -20.473,1.943 -29.249,5.83 -8.778,3.884 -16.317,9.145 -22.614,15.779 -6.3,6.634 -11.156,14.339 -14.574,23.117 -3.417,8.776 -5.126,17.991 -5.126,27.64 v 0.403 c 0,9.648 1.741,18.895 5.227,27.74 3.483,8.845 8.374,16.584 14.674,23.218 6.297,6.633 13.87,11.926 22.715,15.881 8.845,3.95 18.625,5.929 29.348,5.929 10.72,0 20.47,-1.944 29.248,-5.83 8.776,-3.887 16.314,-9.145 22.614,-15.779 6.299,-6.634 11.158,-14.342 14.575,-23.117 3.417,-8.779 5.126,-17.991 5.126,-27.64 0.132,-0.136 0.132,-0.27 0,-0.402 0,-9.649 -1.744,-18.896 -5.227,-27.742 C 62.85,21.509 57.959,13.77 51.662,7.136 45.361,0.503 37.791,-4.793 28.947,-8.745 20.103,-12.696 10.318,-14.674 -0.401,-14.674" /></g></g></g></g></svg>