<?xml version="1.0" encoding="utf-8"?>
<!-- Generator: Adobe Illustrator 21.0.2, SVG Export Plug-In . SVG Version: 6.00 Build 0)  -->
<svg version="1.1" id="Laag_1" xmlns="http://www.w3.org/2000/svg" xmlns:xlink="http://www.w3.org/1999/xlink" x="0px" y="0px"
	 viewBox="0 0 337 337" style="enable-background:new 0 0 2299 337;" xml:space="preserve">
<style type="text/css">
	.st0{fill:#2979FF;}
	.st1{fill:#4839D8;}
	.st2{fill:#2020A0;}
</style>
<g>
	<path class="st0" d="M58.8,115.1c29.6,0,53.5,24,53.5,53.5c0-43.3,37.2-73.5,70.5-73.5c10.3,0,13.9,0.5,22.4,2.6
		c9.7,2.3,16.1,8.7,16,15.9c-0.2,7.2-6.6,12.8-17.3,14.8c-0.2,0-0.7,0.2-1.4,0.4c-3.9,1.1-13,3.7-20,3.7
		c-20.5,0-37.8,16.3-37.8,35.6c0,22.8,17.2,39.3,40.9,39.3c55.3-2.7,90.3-18,116.9-51.2c20.9-26.1,24-71.7-10.7-108.3
		C262.5,17.1,220.6,0,173.9,0C80.9,0,5.3,75.7,5.3,168.7C5.3,139.1,29.2,115.1,58.8,115.1z"/>
	<path class="st1" d="M311.4,237.2c-10.3-17.2-28.1-20.8-41.3-20.8c-12.5,0-26.2,3.3-38.7,9.4c-14.8,7.2-30.8,11-46.5,11
		c-19.8,0-37.8-6.1-50.8-17.3c-14.3-12.3-21.8-29.8-21.8-50.9c0,29.6-24,53.5-53.5,53.5s-53.5-24-53.5-53.5
		c0,93,75.7,168.7,168.7,168.7c1.3,0,2.7,0,4.1,0l0.7,0c2.4,0,5.1,0.1,8,0.1c22.6,0,57.8-3,101.8-29.3c13.2-7.9,22.9-19.1,27.3-31.7
		C320.3,263.2,318.8,249.7,311.4,237.2z"/>
	<path class="st2" d="M58.8,222.2c29.6,0,53.5-24,53.5-53.5s-24-53.5-53.5-53.5s-53.5,24-53.5,53.5S29.2,222.2,58.8,222.2z"/>
</g>
</svg>
