<?xml version="1.0" encoding="iso-8859-1"?>
<!-- Generator: Adobe Illustrator 17.0.0, SVG Export Plug-In . SVG Version: 6.00 Build 0)  -->
<!DOCTYPE svg PUBLIC "-//W3C//DTD SVG 1.1//EN" "http://www.w3.org/Graphics/SVG/1.1/DTD/svg11.dtd">
<svg version="1.1" id="Layer_1" xmlns="http://www.w3.org/2000/svg" xmlns:xlink="http://www.w3.org/1999/xlink" x="0px" y="0px"
	viewBox="0 0 300 125" style="enable-background:new 0 0 300 125;" xml:space="preserve">
<rect style="fill:#3D79FF;" width="300" height="125"/>
<g>
	<path style="fill:#FFFFFF;" d="M153.499,36.943h-11.933v-3.707h27.878v3.707H157.51v31.839h-4.011V36.943z"/>
	<path style="fill:#FFFFFF;" d="M180.298,33.236h4.011v35.546h-4.011V33.236z"/>
	<path style="fill:#FFFFFF;" d="M245.429,33.236h3.758l22.393,28.487V33.236h3.91v35.546h-3.199l-22.952-29.148v29.148h-3.91
		L245.429,33.236L245.429,33.236z"/>
</g>
<g>
	<path style="fill:#FFFFFF;" d="M23.998,33.236h25.694v3.605H28.01v12.238h19.398v3.605H28.01v12.492h21.937v3.605H23.998V33.236z"
		/>
	<path style="fill:#FFFFFF;" d="M58.02,33.236h4.062L75.03,52.634l12.95-19.398h4.062v35.546h-4.011V39.989L75.082,59.031h-0.203
		L61.93,40.041v28.741h-3.91V33.236z"/>
</g>
<g>
	<path style="fill:#FFFFFF;" d="M158.37,78.389h8.594c1.237,0,2.336,0.176,3.298,0.528c0.962,0.353,1.756,0.842,2.385,1.47
		c0.494,0.495,0.876,1.076,1.142,1.742c0.266,0.667,0.4,1.399,0.4,2.199v0.057c0,0.838-0.134,1.585-0.4,2.241
		c-0.266,0.657-0.643,1.227-1.128,1.713c-0.485,0.485-1.062,0.884-1.727,1.199c-0.667,0.314-1.39,0.538-2.17,0.671l6.139,8.166
		h-2.77l-5.796-7.766h-0.056h-5.653v7.766h-2.255L158.37,78.389L158.37,78.389z M166.78,88.581c0.744,0,1.43-0.095,2.061-0.286
		c0.63-0.19,1.174-0.461,1.632-0.813c0.458-0.352,0.815-0.78,1.073-1.285s0.386-1.081,0.386-1.727v-0.057
		c0-1.237-0.449-2.203-1.346-2.898c-0.896-0.694-2.156-1.042-3.778-1.042h-6.183v8.109L166.78,88.581L166.78,88.581z"/>
	<path style="fill:#FFFFFF;" d="M179.014,78.389h14.447v2.027h-12.192v6.881h10.908v2.027h-10.908v7.024h12.335v2.027h-14.59
		L179.014,78.389L179.014,78.389z"/>
	<path style="fill:#FFFFFF;" d="M205.538,78.245h2.113l9.108,20.129h-2.427l-2.341-5.283h-10.879l-2.37,5.283h-2.313L205.538,78.245
		z M211.105,91.066l-4.54-10.193l-4.568,10.193H211.105z"/>
	<path style="fill:#FFFFFF;" d="M220.7,78.389h6.938c1.56,0,2.993,0.253,4.297,0.757c1.303,0.504,2.428,1.203,3.369,2.099
		c0.942,0.894,1.67,1.946,2.184,3.155s0.771,2.518,0.771,3.926v0.056c0,1.409-0.257,2.723-0.771,3.94
		c-0.514,1.218-1.242,2.275-2.184,3.169s-2.066,1.599-3.369,2.113c-1.304,0.514-2.737,0.771-4.297,0.771H220.7V78.389z
		 M227.638,96.29c1.256,0,2.398-0.2,3.426-0.599c1.028-0.4,1.899-0.952,2.613-1.656c0.714-0.704,1.266-1.536,1.656-2.498
		c0.389-0.961,0.585-1.994,0.585-3.098v-0.057c0-1.103-0.196-2.136-0.585-3.098c-0.391-0.962-0.942-1.8-1.656-2.513
		c-0.714-0.714-1.585-1.275-2.613-1.685c-1.028-0.409-2.17-0.614-3.426-0.614h-4.683v15.818
		C222.955,96.291,227.638,96.291,227.638,96.29z"/>
	<path style="fill:#FFFFFF;" d="M243.028,78.389h14.447v2.027h-12.192v6.881h10.908v2.027h-10.908v7.024h12.335v2.027h-14.59
		L243.028,78.389L243.028,78.389z"/>
	<path style="fill:#FFFFFF;" d="M262.157,78.389h8.594c1.237,0,2.336,0.176,3.298,0.528c0.962,0.352,1.756,0.842,2.385,1.47
		c0.494,0.495,0.876,1.076,1.142,1.742c0.266,0.667,0.4,1.399,0.4,2.199v0.057c0,0.838-0.134,1.585-0.4,2.241
		c-0.266,0.657-0.643,1.227-1.128,1.713c-0.485,0.485-1.062,0.884-1.727,1.199c-0.667,0.314-1.39,0.538-2.17,0.671l6.139,8.166
		h-2.77l-5.796-7.766h-0.057h-5.653v7.766h-2.255L262.157,78.389L262.157,78.389z M270.568,88.581c0.744,0,1.43-0.095,2.061-0.286
		c0.63-0.19,1.174-0.461,1.632-0.813c0.458-0.352,0.815-0.78,1.073-1.285s0.386-1.081,0.386-1.727v-0.057
		c0-1.237-0.449-2.203-1.346-2.898c-0.896-0.694-2.156-1.042-3.778-1.042h-6.183v8.109L270.568,88.581L270.568,88.581z"/>
</g>
<g>
	<path style="fill:#FFFFFF;" d="M23.776,78.387h5.162v0.725h-4.356v2.459h3.897v0.725h-3.897v2.51h4.407v0.725h-5.214L23.776,78.387
		L23.776,78.387z"/>
	<path style="fill:#FFFFFF;" d="M30.989,80.255h0.785v0.887c0.088-0.129,0.185-0.255,0.291-0.377
		c0.105-0.123,0.226-0.23,0.362-0.321c0.136-0.092,0.289-0.165,0.459-0.219s0.367-0.082,0.592-0.082
		c0.429,0,0.782,0.101,1.061,0.301c0.278,0.201,0.489,0.451,0.633,0.75c0.095-0.143,0.202-0.279,0.321-0.408
		s0.254-0.242,0.403-0.337s0.318-0.17,0.505-0.225c0.187-0.054,0.396-0.082,0.628-0.082c0.612,0,1.091,0.189,1.438,0.567
		c0.347,0.378,0.52,0.896,0.52,1.556v3.264h-0.785v-3.074c0-0.509-0.121-0.901-0.362-1.176c-0.242-0.274-0.576-0.412-1.005-0.412
		c-0.197,0-0.384,0.036-0.561,0.107c-0.177,0.071-0.332,0.176-0.465,0.315c-0.133,0.14-0.239,0.311-0.316,0.514
		c-0.078,0.204-0.117,0.435-0.117,0.692v3.034H34.6v-3.095c0-0.495-0.121-0.88-0.362-1.155c-0.242-0.274-0.572-0.412-0.994-0.412
		c-0.211,0-0.405,0.041-0.581,0.123c-0.177,0.081-0.332,0.197-0.465,0.346c-0.133,0.15-0.237,0.324-0.311,0.524
		c-0.075,0.2-0.112,0.423-0.112,0.667v3.003H30.99C30.989,85.529,30.989,80.255,30.989,80.255z"/>
	<path style="fill:#FFFFFF;" d="M43.608,85.652c-0.394,0-0.759-0.073-1.091-0.219c-0.334-0.146-0.622-0.344-0.868-0.591
		c-0.245-0.249-0.435-0.538-0.571-0.868c-0.136-0.33-0.204-0.681-0.204-1.056v-0.021c0-0.373,0.067-0.728,0.204-1.061
		c0.136-0.333,0.327-0.626,0.571-0.878c0.245-0.252,0.536-0.451,0.873-0.597c0.337-0.146,0.705-0.219,1.107-0.219
		c0.394,0,0.76,0.073,1.096,0.219c0.337,0.147,0.628,0.344,0.873,0.591c0.245,0.249,0.435,0.538,0.571,0.868
		c0.136,0.33,0.204,0.681,0.204,1.056v0.02c0,0.374-0.07,0.728-0.209,1.061c-0.14,0.334-0.332,0.626-0.576,0.878
		c-0.245,0.252-0.538,0.451-0.878,0.597C44.37,85.579,44.003,85.652,43.608,85.652z M43.629,84.949c0.286,0,0.548-0.054,0.785-0.163
		c0.237-0.109,0.442-0.256,0.612-0.439c0.169-0.184,0.302-0.398,0.398-0.643c0.095-0.246,0.143-0.507,0.143-0.785v-0.021
		c0-0.286-0.05-0.553-0.148-0.801c-0.099-0.248-0.237-0.465-0.413-0.653c-0.177-0.187-0.384-0.335-0.622-0.444
		c-0.238-0.109-0.496-0.163-0.776-0.163c-0.285,0-0.548,0.054-0.785,0.163c-0.237,0.109-0.441,0.256-0.607,0.439
		c-0.166,0.184-0.298,0.4-0.393,0.648c-0.095,0.249-0.143,0.512-0.143,0.791v0.02c0,0.286,0.05,0.553,0.148,0.801
		c0.098,0.249,0.235,0.465,0.408,0.648c0.173,0.183,0.379,0.33,0.617,0.439C43.091,84.893,43.349,84.949,43.629,84.949z"/>
	<path style="fill:#FFFFFF;" d="M50.066,85.622c-0.211,0-0.408-0.028-0.591-0.082c-0.184-0.054-0.342-0.141-0.474-0.259
		c-0.133-0.119-0.237-0.273-0.311-0.465c-0.075-0.19-0.112-0.419-0.112-0.684v-3.183h-0.736v-0.694h0.735v-1.592h0.785v1.592h1.673
		v0.694h-1.673v3.073c0,0.325,0.082,0.553,0.245,0.681c0.163,0.129,0.377,0.193,0.643,0.193c0.136,0,0.263-0.013,0.382-0.039
		s0.247-0.07,0.382-0.135v0.673c-0.136,0.075-0.28,0.132-0.434,0.168C50.428,85.602,50.257,85.622,50.066,85.622z"/>
	<path style="fill:#FFFFFF;" d="M52.953,78.236h0.897v0.868h-0.897V78.236z M53.004,80.255h0.785v5.275h-0.785V80.255z"/>
	<path style="fill:#FFFFFF;" d="M58.534,85.652c-0.394,0-0.759-0.073-1.091-0.219c-0.334-0.146-0.622-0.344-0.868-0.591
		c-0.245-0.249-0.435-0.538-0.571-0.868c-0.136-0.33-0.204-0.681-0.204-1.056v-0.021c0-0.373,0.067-0.728,0.204-1.061
		c0.136-0.333,0.327-0.626,0.571-0.878c0.245-0.252,0.536-0.451,0.873-0.597c0.337-0.146,0.705-0.219,1.107-0.219
		c0.394,0,0.76,0.073,1.096,0.219c0.337,0.147,0.628,0.344,0.873,0.591c0.245,0.249,0.435,0.538,0.571,0.868
		c0.136,0.33,0.204,0.681,0.204,1.056v0.02c0,0.374-0.07,0.728-0.209,1.061c-0.14,0.334-0.332,0.626-0.576,0.878
		c-0.245,0.252-0.538,0.451-0.878,0.597C59.295,85.579,58.928,85.652,58.534,85.652z M58.554,84.949
		c0.286,0,0.548-0.054,0.785-0.163c0.238-0.109,0.442-0.256,0.612-0.439c0.169-0.184,0.302-0.398,0.398-0.643
		c0.095-0.246,0.143-0.507,0.143-0.785v-0.021c0-0.286-0.05-0.553-0.148-0.801c-0.099-0.248-0.237-0.465-0.413-0.653
		c-0.177-0.187-0.384-0.335-0.622-0.444c-0.238-0.109-0.496-0.163-0.776-0.163c-0.285,0-0.548,0.054-0.785,0.163
		c-0.238,0.109-0.441,0.256-0.607,0.439c-0.166,0.184-0.298,0.4-0.393,0.648c-0.095,0.249-0.143,0.512-0.143,0.791v0.02
		c0,0.286,0.05,0.553,0.148,0.801c0.098,0.249,0.235,0.465,0.408,0.648c0.173,0.183,0.379,0.33,0.617,0.439
		C58.016,84.895,58.275,84.949,58.554,84.949z"/>
	<path style="fill:#FFFFFF;" d="M63.227,80.255h0.785v0.918c0.177-0.285,0.408-0.528,0.694-0.729c0.285-0.2,0.657-0.301,1.112-0.301
		c0.32,0,0.603,0.052,0.852,0.153c0.248,0.102,0.459,0.247,0.633,0.434c0.173,0.187,0.306,0.41,0.398,0.669
		c0.092,0.258,0.138,0.544,0.138,0.857v3.275h-0.785v-3.074c0-0.489-0.126-0.876-0.377-1.161c-0.252-0.285-0.612-0.428-1.082-0.428
		c-0.225,0-0.434,0.039-0.628,0.117s-0.362,0.19-0.505,0.336s-0.254,0.321-0.332,0.524c-0.078,0.204-0.117,0.428-0.117,0.672v3.014
		h-0.785L63.227,80.255L63.227,80.255z"/>
	<path style="fill:#FFFFFF;" d="M71.766,85.632c-0.381,0-0.766-0.069-1.153-0.209s-0.731-0.328-1.03-0.567l0.398-0.561
		c0.286,0.218,0.583,0.384,0.892,0.5s0.621,0.173,0.934,0.173c0.32,0,0.581-0.075,0.785-0.225c0.204-0.15,0.306-0.354,0.306-0.612
		v-0.02c0-0.129-0.036-0.242-0.107-0.337s-0.168-0.178-0.291-0.25c-0.123-0.071-0.263-0.134-0.424-0.189
		c-0.159-0.054-0.325-0.105-0.495-0.153c-0.204-0.061-0.41-0.128-0.617-0.199c-0.207-0.071-0.394-0.161-0.561-0.27
		c-0.167-0.109-0.303-0.245-0.408-0.408c-0.105-0.163-0.158-0.367-0.158-0.612v-0.021c0-0.224,0.045-0.43,0.133-0.617
		c0.088-0.187,0.213-0.347,0.372-0.479c0.159-0.132,0.351-0.235,0.571-0.306c0.221-0.071,0.461-0.107,0.719-0.107
		c0.327,0,0.657,0.052,0.989,0.158c0.333,0.105,0.636,0.247,0.908,0.424l-0.357,0.591c-0.245-0.156-0.502-0.28-0.771-0.372
		c-0.268-0.092-0.532-0.138-0.79-0.138c-0.313,0-0.561,0.072-0.745,0.219c-0.184,0.146-0.275,0.328-0.275,0.546v0.02
		c0,0.123,0.038,0.23,0.112,0.322c0.075,0.092,0.175,0.172,0.301,0.24c0.126,0.068,0.27,0.13,0.434,0.184s0.333,0.109,0.51,0.163
		c0.204,0.061,0.406,0.13,0.607,0.204c0.2,0.075,0.382,0.17,0.546,0.286c0.163,0.116,0.294,0.256,0.393,0.418
		c0.098,0.163,0.148,0.363,0.148,0.602v0.021c0,0.252-0.05,0.474-0.148,0.669c-0.099,0.193-0.232,0.359-0.398,0.494
		c-0.167,0.136-0.364,0.24-0.592,0.311C72.278,85.596,72.031,85.632,71.766,85.632z"/>
	<path style="fill:#FFFFFF;" d="M80.754,85.641c-0.245,0-0.486-0.035-0.724-0.102c-0.239-0.067-0.449-0.171-0.633-0.311
		c-0.183-0.14-0.332-0.311-0.444-0.515c-0.112-0.204-0.168-0.442-0.168-0.714v-0.021c0-0.286,0.054-0.536,0.163-0.75
		c0.109-0.214,0.263-0.393,0.465-0.536s0.439-0.252,0.714-0.327c0.275-0.075,0.579-0.112,0.913-0.112
		c0.34,0,0.634,0.021,0.882,0.061c0.248,0.042,0.491,0.095,0.729,0.163v-0.162c0-0.466-0.136-0.819-0.408-1.059
		c-0.272-0.24-0.657-0.361-1.153-0.361c-0.313,0-0.597,0.035-0.852,0.102c-0.256,0.068-0.505,0.16-0.75,0.275l-0.235-0.647
		c0.292-0.138,0.588-0.249,0.887-0.331c0.299-0.083,0.643-0.125,1.03-0.125c0.748,0,1.316,0.194,1.704,0.581
		c0.367,0.367,0.551,0.884,0.551,1.551v3.224H82.65v-0.784c-0.183,0.239-0.43,0.447-0.74,0.628
		C81.601,85.551,81.216,85.641,80.754,85.641z M80.912,84.999c0.244,0,0.471-0.034,0.681-0.102c0.21-0.067,0.395-0.164,0.555-0.289
		c0.159-0.126,0.284-0.274,0.376-0.447c0.092-0.172,0.138-0.363,0.138-0.573v-0.487c-0.197-0.053-0.42-0.105-0.671-0.153
		c-0.251-0.047-0.539-0.07-0.865-0.07c-0.488,0-0.866,0.096-1.134,0.289c-0.267,0.192-0.401,0.449-0.401,0.767v0.021
		c0,0.162,0.036,0.31,0.107,0.442s0.167,0.242,0.29,0.33c0.122,0.088,0.262,0.155,0.422,0.203
		C80.568,84.975,80.736,84.999,80.912,84.999z"/>
	<path style="fill:#FFFFFF;" d="M85.6,80.255h0.785v1.378c0.095-0.218,0.214-0.418,0.358-0.601c0.143-0.184,0.306-0.343,0.489-0.474
		c0.184-0.133,0.384-0.233,0.602-0.301c0.218-0.068,0.453-0.099,0.704-0.092v0.847h-0.061c-0.285,0-0.556,0.052-0.811,0.153
		c-0.256,0.102-0.478,0.256-0.669,0.46c-0.191,0.204-0.34,0.458-0.449,0.76c-0.109,0.303-0.163,0.652-0.163,1.046v2.102H85.6V80.255
		z"/>
	<path style="fill:#FFFFFF;" d="M90.71,83.214c0.027,0.279,0.095,0.527,0.204,0.745s0.248,0.402,0.418,0.551
		c0.17,0.15,0.361,0.263,0.571,0.342c0.211,0.078,0.432,0.118,0.663,0.118c0.367,0,0.681-0.068,0.944-0.204
		c0.261-0.136,0.501-0.316,0.719-0.541l0.489,0.439c-0.265,0.299-0.568,0.54-0.908,0.719c-0.34,0.18-0.762,0.27-1.265,0.27
		c-0.361,0-0.7-0.066-1.02-0.199c-0.32-0.133-0.598-0.32-0.837-0.561s-0.427-0.532-0.567-0.873c-0.14-0.34-0.209-0.714-0.209-1.122
		c0-0.38,0.062-0.74,0.188-1.077c0.126-0.337,0.301-0.629,0.526-0.878c0.225-0.249,0.491-0.444,0.801-0.586
		c0.309-0.143,0.648-0.215,1.015-0.215c0.388,0,0.735,0.073,1.041,0.219c0.306,0.147,0.565,0.346,0.775,0.597
		c0.21,0.251,0.37,0.548,0.479,0.887c0.109,0.34,0.163,0.704,0.163,1.092c0,0.034,0,0.072,0,0.117s-0.004,0.097-0.01,0.158h-4.18
		V83.214z M94.108,82.572c-0.021-0.237-0.071-0.462-0.154-0.674c-0.081-0.213-0.192-0.401-0.332-0.564
		c-0.14-0.163-0.31-0.29-0.51-0.385c-0.201-0.094-0.43-0.142-0.688-0.142c-0.225,0-0.436,0.044-0.633,0.132
		c-0.197,0.088-0.371,0.211-0.52,0.37c-0.15,0.159-0.274,0.347-0.372,0.564c-0.099,0.216-0.161,0.45-0.189,0.699
		C90.709,82.572,94.108,82.572,94.108,82.572z"/>
	<path style="fill:#FFFFFF;" d="M101.933,85.641c-0.245,0-0.486-0.035-0.724-0.102c-0.239-0.067-0.449-0.171-0.633-0.311
		c-0.183-0.14-0.332-0.311-0.444-0.515c-0.112-0.204-0.168-0.442-0.168-0.714v-0.021c0-0.286,0.054-0.536,0.163-0.75
		c0.109-0.214,0.263-0.393,0.465-0.536c0.201-0.143,0.439-0.252,0.714-0.327c0.275-0.075,0.579-0.112,0.913-0.112
		c0.34,0,0.634,0.021,0.882,0.061c0.248,0.042,0.491,0.095,0.729,0.163v-0.162c0-0.466-0.136-0.819-0.408-1.059
		c-0.272-0.24-0.657-0.361-1.153-0.361c-0.313,0-0.597,0.035-0.852,0.102c-0.256,0.068-0.505,0.16-0.75,0.275l-0.235-0.647
		c0.292-0.138,0.588-0.249,0.887-0.331s0.643-0.125,1.03-0.125c0.748,0,1.316,0.194,1.704,0.581
		c0.367,0.367,0.551,0.884,0.551,1.551v3.224h-0.776v-0.784c-0.183,0.239-0.43,0.447-0.74,0.628
		C102.781,85.551,102.395,85.641,101.933,85.641z M102.091,84.999c0.244,0,0.471-0.034,0.681-0.102
		c0.21-0.067,0.395-0.164,0.555-0.289c0.159-0.126,0.284-0.274,0.376-0.447c0.092-0.172,0.138-0.363,0.138-0.573v-0.487
		c-0.197-0.053-0.42-0.105-0.671-0.153c-0.251-0.047-0.539-0.07-0.865-0.07c-0.488,0-0.866,0.096-1.134,0.289
		c-0.267,0.192-0.401,0.449-0.401,0.767v0.021c0,0.162,0.036,0.31,0.107,0.442s0.167,0.242,0.29,0.33
		c0.122,0.088,0.262,0.155,0.422,0.203C101.748,84.975,101.915,84.999,102.091,84.999z"/>
	<path style="fill:#FFFFFF;" d="M109.9,80.255h0.837l1.388,4.234l1.418-4.254h0.653l1.428,4.254l1.388-4.234h0.816l-1.857,5.316
		h-0.683l-1.418-4.163l-1.428,4.163h-0.693L109.9,80.255z"/>
	<path style="fill:#FFFFFF;" d="M119.663,78.236h0.897v0.868h-0.897V78.236z M119.715,80.255h0.785v5.275h-0.785V80.255z"/>
	<path style="fill:#FFFFFF;" d="M122.837,80.255h0.785v0.918c0.177-0.285,0.408-0.528,0.694-0.729
		c0.285-0.2,0.657-0.301,1.112-0.301c0.32,0,0.603,0.052,0.852,0.153c0.248,0.102,0.459,0.247,0.633,0.434
		c0.173,0.187,0.306,0.41,0.398,0.669c0.092,0.258,0.138,0.544,0.138,0.857v3.275h-0.785v-3.074c0-0.489-0.126-0.876-0.377-1.161
		c-0.252-0.285-0.612-0.428-1.082-0.428c-0.225,0-0.434,0.039-0.628,0.117s-0.362,0.19-0.505,0.336s-0.254,0.321-0.332,0.524
		c-0.078,0.204-0.117,0.428-0.117,0.672v3.014h-0.785L122.837,80.255L122.837,80.255z"/>
	<path style="fill:#FFFFFF;" d="M131.845,85.641c-0.32,0-0.629-0.061-0.929-0.183c-0.299-0.123-0.568-0.301-0.806-0.536
		c-0.239-0.235-0.429-0.52-0.571-0.857c-0.143-0.337-0.214-0.723-0.214-1.158v-0.021c0-0.429,0.071-0.812,0.214-1.153
		c0.143-0.34,0.333-0.628,0.571-0.862c0.238-0.235,0.506-0.415,0.806-0.541c0.299-0.126,0.609-0.189,0.929-0.189
		c0.245,0,0.469,0.031,0.673,0.092s0.387,0.143,0.551,0.246c0.163,0.102,0.311,0.221,0.444,0.357s0.25,0.279,0.352,0.429v-3.183
		h0.785v7.448h-0.785v-1.061c-0.109,0.156-0.23,0.306-0.362,0.449c-0.132,0.143-0.28,0.269-0.444,0.377
		c-0.163,0.109-0.346,0.194-0.546,0.256C132.312,85.611,132.089,85.641,131.845,85.641z M131.987,84.938
		c0.245,0,0.481-0.05,0.709-0.149s0.432-0.238,0.612-0.418c0.18-0.18,0.323-0.394,0.429-0.643c0.105-0.249,0.158-0.525,0.158-0.832
		v-0.02c0-0.306-0.052-0.583-0.158-0.832c-0.105-0.249-0.249-0.461-0.429-0.638c-0.18-0.176-0.384-0.314-0.612-0.413
		s-0.464-0.149-0.709-0.149c-0.259,0-0.5,0.046-0.725,0.138c-0.225,0.092-0.42,0.225-0.586,0.398s-0.299,0.386-0.398,0.638
		s-0.148,0.538-0.148,0.858v0.02c0,0.313,0.05,0.595,0.148,0.847c0.099,0.252,0.233,0.466,0.403,0.643
		c0.17,0.177,0.367,0.313,0.592,0.408C131.498,84.891,131.736,84.938,131.987,84.938z"/>
	<path style="fill:#FFFFFF;" d="M139.322,85.652c-0.394,0-0.759-0.073-1.091-0.219c-0.334-0.146-0.622-0.344-0.868-0.591
		c-0.245-0.249-0.435-0.538-0.571-0.868s-0.204-0.681-0.204-1.056v-0.021c0-0.373,0.067-0.728,0.204-1.061
		c0.136-0.333,0.327-0.626,0.571-0.878s0.536-0.451,0.873-0.597c0.337-0.146,0.705-0.219,1.106-0.219
		c0.394,0,0.76,0.073,1.096,0.219c0.337,0.147,0.628,0.344,0.873,0.591c0.245,0.249,0.435,0.538,0.571,0.868
		s0.204,0.681,0.204,1.056v0.02c0,0.374-0.07,0.728-0.209,1.061c-0.14,0.334-0.332,0.626-0.576,0.878
		c-0.245,0.252-0.538,0.451-0.878,0.597C140.084,85.579,139.718,85.652,139.322,85.652z M139.343,84.949
		c0.286,0,0.548-0.054,0.785-0.163c0.238-0.109,0.442-0.256,0.612-0.439c0.169-0.184,0.302-0.398,0.398-0.643
		c0.095-0.246,0.143-0.507,0.143-0.785v-0.021c0-0.286-0.05-0.553-0.148-0.801c-0.099-0.248-0.237-0.465-0.413-0.653
		c-0.177-0.187-0.384-0.335-0.622-0.444c-0.238-0.109-0.496-0.163-0.776-0.163c-0.285,0-0.548,0.054-0.785,0.163
		c-0.237,0.109-0.441,0.256-0.607,0.439c-0.166,0.184-0.298,0.4-0.393,0.648c-0.095,0.249-0.143,0.512-0.143,0.791v0.02
		c0,0.286,0.05,0.553,0.148,0.801s0.235,0.465,0.408,0.648c0.173,0.183,0.379,0.33,0.617,0.439
		C138.805,84.893,139.064,84.949,139.343,84.949z"/>
	<path style="fill:#FFFFFF;" d="M143.566,80.255h0.837l1.387,4.234l1.418-4.254h0.653l1.429,4.254l1.387-4.234h0.816l-1.856,5.316
		h-0.684l-1.417-4.163l-1.429,4.163h-0.693L143.566,80.255z"/>
	<path style="fill:#FFFFFF;" d="M79.009,90.477h0.897v0.868h-0.897V90.477z M79.06,92.499h0.785v5.275H79.06V92.499z"/>
	<path style="fill:#FFFFFF;" d="M82.182,92.499h0.785v0.918c0.177-0.285,0.408-0.528,0.694-0.729c0.285-0.2,0.657-0.301,1.112-0.301
		c0.32,0,0.603,0.052,0.852,0.153c0.248,0.102,0.459,0.247,0.633,0.434c0.173,0.187,0.306,0.41,0.398,0.669s0.138,0.544,0.138,0.857
		v3.275h-0.785v-3.076c0-0.489-0.126-0.876-0.377-1.161c-0.252-0.285-0.612-0.428-1.082-0.428c-0.225,0-0.434,0.039-0.628,0.117
		c-0.194,0.078-0.362,0.19-0.505,0.336c-0.143,0.146-0.254,0.321-0.332,0.524c-0.078,0.204-0.117,0.428-0.117,0.672v3.014h-0.785
		L82.182,92.499L82.182,92.499z"/>
	<path style="fill:#FFFFFF;" d="M90.741,97.865c-0.211,0-0.408-0.028-0.591-0.082c-0.184-0.054-0.342-0.141-0.474-0.259
		c-0.133-0.119-0.237-0.273-0.311-0.465c-0.075-0.19-0.112-0.419-0.112-0.684v-3.183h-0.735v-0.694h0.735v-1.592h0.785v1.592h1.673
		v0.694h-1.673v3.073c0,0.325,0.082,0.553,0.245,0.681c0.163,0.129,0.377,0.193,0.643,0.193c0.136,0,0.263-0.013,0.382-0.039
		s0.247-0.07,0.382-0.135v0.673c-0.136,0.075-0.28,0.132-0.434,0.168C91.104,97.846,90.931,97.865,90.741,97.865z"/>
	<path style="fill:#FFFFFF;" d="M96.016,97.895c-0.394,0-0.759-0.073-1.091-0.219c-0.334-0.146-0.622-0.344-0.868-0.591
		c-0.245-0.249-0.435-0.538-0.571-0.868s-0.204-0.681-0.204-1.056v-0.021c0-0.373,0.067-0.728,0.204-1.061
		c0.136-0.333,0.327-0.626,0.571-0.878s0.536-0.451,0.873-0.597c0.337-0.146,0.705-0.219,1.107-0.219
		c0.394,0,0.76,0.073,1.096,0.219c0.337,0.147,0.628,0.344,0.873,0.591c0.245,0.249,0.435,0.538,0.571,0.868
		s0.204,0.681,0.204,1.056v0.02c0,0.374-0.07,0.728-0.209,1.061c-0.14,0.334-0.332,0.626-0.576,0.878s-0.538,0.451-0.878,0.597
		C96.778,97.822,96.41,97.895,96.016,97.895z M96.036,97.191c0.286,0,0.548-0.054,0.785-0.163c0.238-0.109,0.442-0.256,0.612-0.439
		c0.169-0.184,0.302-0.398,0.398-0.643c0.095-0.246,0.143-0.507,0.143-0.785v-0.021c0-0.286-0.05-0.553-0.148-0.801
		c-0.099-0.248-0.237-0.465-0.413-0.653c-0.177-0.187-0.384-0.335-0.622-0.444c-0.238-0.109-0.496-0.163-0.775-0.163
		c-0.285,0-0.548,0.054-0.785,0.163c-0.237,0.109-0.441,0.256-0.607,0.439c-0.166,0.184-0.298,0.4-0.393,0.648
		c-0.095,0.249-0.143,0.512-0.143,0.791v0.02c0,0.286,0.05,0.553,0.148,0.801c0.098,0.249,0.235,0.465,0.408,0.648
		c0.173,0.183,0.379,0.33,0.617,0.439C95.499,97.137,95.757,97.191,96.036,97.191z"/>
	<path style="fill:#FFFFFF;" d="M106.044,97.865c-0.211,0-0.408-0.028-0.591-0.082c-0.184-0.054-0.342-0.141-0.474-0.259
		c-0.133-0.119-0.237-0.273-0.311-0.465c-0.075-0.19-0.112-0.419-0.112-0.684v-3.183h-0.735v-0.694h0.735v-1.592h0.785v1.592h1.673
		v0.694h-1.673v3.073c0,0.325,0.082,0.553,0.245,0.681c0.163,0.129,0.377,0.193,0.643,0.193c0.136,0,0.263-0.013,0.382-0.039
		s0.247-0.07,0.382-0.135v0.673c-0.136,0.075-0.28,0.132-0.434,0.168C106.407,97.846,106.234,97.865,106.044,97.865z"/>
	<path style="fill:#FFFFFF;" d="M108.91,90.326h0.785v3.091c0.177-0.285,0.408-0.528,0.694-0.729c0.285-0.2,0.657-0.301,1.112-0.301
		c0.32,0,0.603,0.052,0.852,0.153c0.248,0.102,0.459,0.247,0.633,0.434c0.173,0.187,0.306,0.41,0.398,0.669s0.138,0.544,0.138,0.857
		v3.275h-0.785v-3.076c0-0.489-0.126-0.876-0.377-1.161c-0.252-0.285-0.612-0.428-1.082-0.428c-0.225,0-0.434,0.039-0.628,0.117
		c-0.194,0.078-0.362,0.19-0.505,0.336c-0.143,0.146-0.254,0.321-0.332,0.524c-0.078,0.204-0.117,0.428-0.117,0.672v3.014h-0.785
		L108.91,90.326L108.91,90.326z"/>
	<path style="fill:#FFFFFF;" d="M116.175,95.456c0.027,0.279,0.095,0.527,0.204,0.745s0.248,0.402,0.418,0.551
		c0.17,0.15,0.361,0.263,0.571,0.342c0.21,0.079,0.432,0.118,0.663,0.118c0.367,0,0.681-0.068,0.944-0.204
		c0.261-0.136,0.501-0.316,0.719-0.541l0.489,0.439c-0.265,0.299-0.568,0.54-0.908,0.719c-0.34,0.18-0.762,0.27-1.265,0.27
		c-0.361,0-0.7-0.066-1.02-0.199s-0.598-0.32-0.837-0.561c-0.238-0.242-0.427-0.532-0.567-0.873c-0.14-0.34-0.209-0.714-0.209-1.122
		c0-0.38,0.062-0.74,0.188-1.077c0.126-0.337,0.301-0.629,0.526-0.878c0.225-0.249,0.491-0.444,0.801-0.586
		c0.309-0.143,0.648-0.215,1.015-0.215c0.388,0,0.735,0.073,1.041,0.219c0.306,0.147,0.565,0.346,0.775,0.597
		c0.211,0.252,0.37,0.548,0.479,0.887c0.109,0.34,0.163,0.704,0.163,1.092c0,0.034,0,0.072,0,0.117s-0.004,0.097-0.01,0.158h-4.18
		V95.456z M119.572,94.813c-0.021-0.237-0.071-0.462-0.154-0.674c-0.081-0.213-0.192-0.401-0.332-0.564
		c-0.14-0.163-0.31-0.29-0.51-0.385c-0.201-0.094-0.43-0.142-0.688-0.142c-0.225,0-0.436,0.044-0.633,0.132
		c-0.197,0.088-0.371,0.211-0.52,0.37c-0.15,0.159-0.274,0.347-0.372,0.564c-0.099,0.216-0.161,0.45-0.189,0.699
		C116.174,94.813,119.572,94.813,119.572,94.813z"/>
	<path style="fill:#FFFFFF;" d="M125.826,92.499h0.785v0.887c0.088-0.129,0.185-0.255,0.291-0.377
		c0.105-0.123,0.226-0.23,0.362-0.321c0.136-0.092,0.289-0.165,0.459-0.219s0.367-0.082,0.592-0.082
		c0.429,0,0.782,0.101,1.061,0.301c0.278,0.201,0.489,0.451,0.633,0.75c0.095-0.143,0.202-0.279,0.321-0.408
		s0.254-0.242,0.403-0.337c0.15-0.095,0.318-0.17,0.505-0.225c0.187-0.054,0.396-0.082,0.628-0.082c0.612,0,1.091,0.189,1.438,0.567
		c0.347,0.377,0.52,0.896,0.52,1.556v3.264h-0.785v-3.074c0-0.509-0.121-0.901-0.362-1.176c-0.242-0.274-0.576-0.412-1.005-0.412
		c-0.197,0-0.384,0.036-0.561,0.107c-0.176,0.071-0.332,0.176-0.465,0.315c-0.133,0.14-0.239,0.311-0.316,0.514
		c-0.078,0.204-0.117,0.435-0.117,0.692v3.034h-0.776v-3.095c0-0.495-0.121-0.88-0.362-1.155c-0.241-0.275-0.572-0.412-0.994-0.412
		c-0.211,0-0.405,0.041-0.581,0.123c-0.177,0.081-0.332,0.197-0.465,0.346c-0.133,0.15-0.237,0.324-0.311,0.524
		c-0.075,0.2-0.112,0.423-0.112,0.667v3.003h-0.785L125.826,92.499C125.827,92.499,125.826,92.499,125.826,92.499z"/>
	<path style="fill:#FFFFFF;" d="M136.058,90.477h0.897v0.868h-0.897V90.477z M136.109,92.499h0.785v5.275h-0.785V92.499z"/>
	<path style="fill:#FFFFFF;" d="M139.231,92.499h0.785v0.918c0.177-0.285,0.408-0.528,0.694-0.729
		c0.285-0.2,0.657-0.301,1.112-0.301c0.32,0,0.603,0.052,0.852,0.153c0.248,0.102,0.459,0.247,0.633,0.434s0.306,0.41,0.397,0.669
		c0.092,0.259,0.138,0.544,0.138,0.857v3.275h-0.785v-3.076c0-0.489-0.126-0.876-0.377-1.161c-0.252-0.285-0.612-0.428-1.082-0.428
		c-0.225,0-0.434,0.039-0.628,0.117c-0.194,0.078-0.362,0.19-0.505,0.336c-0.143,0.146-0.254,0.321-0.332,0.524
		c-0.078,0.204-0.117,0.428-0.117,0.672v3.014h-0.785L139.231,92.499L139.231,92.499z"/>
	<path style="fill:#FFFFFF;" d="M148.239,97.885c-0.32,0-0.629-0.061-0.928-0.183c-0.299-0.123-0.568-0.301-0.806-0.536
		s-0.428-0.52-0.571-0.857c-0.143-0.337-0.215-0.723-0.215-1.158V95.13c0-0.429,0.071-0.812,0.215-1.153
		c0.143-0.34,0.333-0.628,0.571-0.862c0.239-0.235,0.507-0.415,0.806-0.541c0.299-0.126,0.608-0.189,0.928-0.189
		c0.246,0,0.469,0.031,0.673,0.092c0.204,0.061,0.388,0.143,0.551,0.246c0.163,0.102,0.311,0.221,0.444,0.357
		s0.25,0.279,0.352,0.429v-3.183h0.785v7.448h-0.785v-1.061c-0.109,0.156-0.23,0.306-0.363,0.449
		c-0.133,0.143-0.28,0.269-0.444,0.377c-0.163,0.109-0.346,0.194-0.546,0.256C148.707,97.854,148.484,97.885,148.239,97.885z
		 M148.382,97.18c0.246,0,0.481-0.05,0.709-0.149s0.432-0.238,0.612-0.418c0.18-0.18,0.323-0.394,0.428-0.643
		c0.105-0.249,0.158-0.525,0.158-0.832v-0.02c0-0.306-0.052-0.583-0.158-0.832c-0.105-0.249-0.249-0.461-0.428-0.638
		c-0.18-0.176-0.384-0.314-0.612-0.413s-0.464-0.149-0.709-0.149c-0.258,0-0.5,0.046-0.724,0.138
		c-0.225,0.092-0.42,0.225-0.587,0.398c-0.166,0.173-0.299,0.386-0.397,0.638c-0.099,0.252-0.149,0.538-0.149,0.858v0.02
		c0,0.313,0.049,0.595,0.149,0.847c0.098,0.252,0.233,0.466,0.403,0.643c0.169,0.177,0.367,0.313,0.591,0.408
		C147.893,97.133,148.13,97.18,148.382,97.18z"/>
</g>
<g>
	<path style="fill:#FFFFFF;" d="M120.302,69.391c-2.709,0-5.172-0.491-7.388-1.473c-2.217-0.981-4.122-2.31-5.713-3.986
		c-1.592-1.676-2.818-3.622-3.682-5.84c-0.863-2.217-1.295-4.545-1.295-6.982v-0.102c0-2.437,0.44-4.773,1.32-7.007
		s2.115-4.19,3.707-5.865c1.591-1.676,3.504-3.013,5.738-4.012c2.234-0.998,4.705-1.498,7.414-1.498
		c2.708,0,5.171,0.491,7.388,1.473s4.121,2.31,5.713,3.986c1.591,1.676,2.818,3.623,3.682,5.84c0.863,2.218,1.295,4.545,1.295,6.982
		c0.033,0.034,0.033,0.068,0,0.102c0,2.437-0.44,4.773-1.32,7.008c-0.881,2.234-2.116,4.189-3.707,5.865
		c-1.592,1.676-3.504,3.014-5.738,4.012C125.481,68.891,123.01,69.391,120.302,69.391z M120.403,65.684
		c2.031,0,3.901-0.381,5.611-1.143c1.709-0.762,3.174-1.802,4.392-3.123c1.219-1.32,2.175-2.86,2.869-4.621
		c0.694-1.76,1.041-3.656,1.041-5.687v-0.102c0-2.031-0.347-3.935-1.041-5.713s-1.668-3.326-2.92-4.646
		c-1.253-1.32-2.734-2.369-4.443-3.148c-1.71-0.779-3.58-1.168-5.611-1.168c-2.031,0-3.902,0.381-5.611,1.143
		c-1.71,0.762-3.174,1.803-4.392,3.123s-2.176,2.861-2.869,4.621c-0.694,1.761-1.041,3.656-1.041,5.687v0.102
		c0,2.031,0.347,3.936,1.041,5.713c0.693,1.777,1.667,3.326,2.92,4.646c1.252,1.32,2.733,2.37,4.443,3.149
		C116.501,65.294,118.372,65.684,120.403,65.684z"/>
</g>
<g>
	<g>
		<path style="fill:#FFFFFF;" d="M203.205,37.882c2.304,0,4.179,1.768,4.179,4.179h4.287c0-4.823-3.798-8.466-8.466-8.466
			s-8.466,3.643-8.466,8.466h4.287C199.026,39.649,200.901,37.882,203.205,37.882z"/>
	</g>
	<g>
		<path style="fill:#FFFFFF;" d="M230.313,37.882c2.304,0,4.179,1.768,4.179,4.179h4.287c0-4.823-3.798-8.466-8.466-8.466
			s-8.466,3.643-8.466,8.466h4.287C226.134,39.649,228.008,37.882,230.313,37.882z"/>
	</g>
	<g>
		<path style="fill:#FFFFFF;" d="M216.683,68.854c8.294,0,16.242-4.241,20.793-11.283l-3.601-2.327
			c-4.179,6.467-11.825,10.076-19.477,9.192c-5.965-0.688-11.481-4.124-14.756-9.192l-3.6,2.327
			c3.963,6.133,10.641,10.291,17.865,11.124C214.834,68.801,215.76,68.854,216.683,68.854z"/>
	</g>
</g>
</svg>
