<?xml version="1.0" encoding="utf-8"?>
<!-- Generator: Adobe Illustrator 17.0.0, SVG Export Plug-In . SVG Version: 6.00 Build 0)  -->
<!DOCTYPE svg PUBLIC "-//W3C//DTD SVG 1.1//EN" "http://www.w3.org/Graphics/SVG/1.1/DTD/svg11.dtd">
<svg version="1.1" id="Layer_1" xmlns="http://www.w3.org/2000/svg" xmlns:xlink="http://www.w3.org/1999/xlink" x="0px" y="0px"
	 width="300px" height="125px" viewBox="0 0 300 125" enable-background="new 0 0 300 125" xml:space="preserve">
<rect fill="#3D79FF" width="300" height="125"/>
<g>
	<path fill="#FFFFFF" d="M164.335,34.834h-12.383v-3.847h28.929v3.847h-12.384v33.039h-4.163V34.834z"/>
	<path fill="#FFFFFF" d="M189.101,30.987h4.163v36.886h-4.163V30.987z"/>
	<path fill="#FFFFFF" d="M249.558,30.987h3.9l23.238,29.562V30.987h4.058v36.886h-3.32l-23.818-30.247v30.247h-4.058V30.987z"/>
</g>
<g>
	<path fill="#FFFFFF" d="M18.632,30.987h26.663v3.741h-22.5v12.699h20.129v3.741H22.794v12.963h22.764v3.741H18.632V30.987z"/>
	<path fill="#FFFFFF" d="M53.937,30.987h4.216l13.437,20.129l13.437-20.129h4.216v36.886h-4.163V37.996l-13.437,19.76h-0.211
		L57.994,38.048v29.825h-4.057V30.987z"/>
</g>
<g>
	<g>
		<path fill="#FFFFFF" d="M108.617,35.809c2.391,0,4.337,1.834,4.337,4.337h4.449c0-5.005-3.941-8.785-8.785-8.785
			c-4.844,0-8.785,3.78-8.785,8.785h4.449C104.281,37.643,106.226,35.809,108.617,35.809z"/>
	</g>
	<g>
		<path fill="#FFFFFF" d="M136.747,35.809c2.391,0,4.337,1.834,4.337,4.337h4.449c0-5.005-3.941-8.785-8.785-8.785
			c-4.844,0-8.785,3.78-8.785,8.785h4.449C132.411,37.643,134.356,35.809,136.747,35.809z"/>
	</g>
	<g>
		<path fill="#FFFFFF" d="M122.604,67.949c8.606,0,16.854-4.401,21.577-11.709l-3.737-2.414c-4.336,6.71-12.271,10.456-20.211,9.539
			c-6.19-0.714-11.914-4.28-15.312-9.539l-3.736,2.414c4.112,6.364,11.043,10.679,18.538,11.544
			C120.685,67.895,121.646,67.949,122.604,67.949z"/>
	</g>
</g>
<g>
	<path fill="#FFFFFF" d="M158,77.844h8.944c1.287,0,2.432,0.183,3.432,0.55s1.828,0.876,2.482,1.53
		c0.515,0.515,0.911,1.12,1.189,1.813c0.277,0.694,0.416,1.457,0.416,2.288v0.059c0,0.872-0.139,1.649-0.416,2.333
		c-0.278,0.683-0.669,1.278-1.174,1.783c-0.505,0.505-1.105,0.921-1.798,1.248c-0.694,0.327-1.447,0.56-2.258,0.698l6.389,8.499
		h-2.883l-6.032-8.083h-0.059h-5.884v8.083H158V77.844z M166.753,88.453c0.774,0,1.489-0.099,2.145-0.297
		c0.655-0.198,1.222-0.48,1.699-0.847c0.476-0.366,0.848-0.812,1.117-1.337c0.268-0.525,0.402-1.124,0.402-1.798v-0.06
		c0-1.287-0.467-2.293-1.401-3.016c-0.933-0.723-2.244-1.084-3.932-1.084h-6.435v8.439H166.753z"/>
	<path fill="#FFFFFF" d="M179.485,77.844h15.036v2.11h-12.689v7.162h11.352v2.11h-11.352v7.31h12.837v2.11h-15.185V77.844z"/>
	<path fill="#FFFFFF" d="M207.091,77.695h2.199l9.479,20.95h-2.526l-2.437-5.498h-11.322l-2.466,5.498h-2.407L207.091,77.695z
		 M212.886,91.038l-4.725-10.609l-4.754,10.609H212.886z"/>
	<path fill="#FFFFFF" d="M222.871,77.844h7.221c1.624,0,3.115,0.263,4.472,0.788c1.357,0.525,2.526,1.253,3.507,2.184
		c0.98,0.931,1.738,2.026,2.273,3.283c0.535,1.258,0.802,2.621,0.802,4.086v0.059c0,1.466-0.267,2.833-0.802,4.101
		c-0.535,1.268-1.293,2.368-2.273,3.299c-0.981,0.931-2.15,1.664-3.507,2.199c-1.357,0.535-2.848,0.802-4.472,0.802h-7.221V77.844z
		 M230.092,96.476c1.307,0,2.496-0.208,3.566-0.624c1.07-0.416,1.976-0.991,2.719-1.724c0.743-0.733,1.317-1.599,1.724-2.6
		c0.406-1,0.609-2.075,0.609-3.224v-0.059c0-1.149-0.204-2.224-0.609-3.224c-0.407-1-0.981-1.872-1.724-2.615
		c-0.743-0.743-1.649-1.327-2.719-1.753c-1.07-0.426-2.258-0.639-3.566-0.639h-4.874v16.463H230.092z"/>
	<path fill="#FFFFFF" d="M246.109,77.844h15.036v2.11h-12.689v7.162h11.352v2.11h-11.352v7.31h12.837v2.11h-15.185V77.844z"/>
	<path fill="#FFFFFF" d="M266.019,77.844h8.944c1.287,0,2.432,0.183,3.432,0.55c1,0.367,1.828,0.876,2.482,1.53
		c0.515,0.515,0.911,1.12,1.189,1.813c0.277,0.694,0.416,1.457,0.416,2.288v0.059c0,0.872-0.139,1.649-0.416,2.333
		c-0.278,0.683-0.669,1.278-1.174,1.783c-0.505,0.505-1.105,0.921-1.798,1.248c-0.694,0.327-1.447,0.56-2.258,0.698l6.389,8.499
		h-2.883l-6.032-8.083h-0.059h-5.884v8.083h-2.347V77.844z M274.772,88.453c0.774,0,1.489-0.099,2.145-0.297
		c0.655-0.198,1.222-0.48,1.699-0.847c0.476-0.366,0.848-0.812,1.117-1.337c0.268-0.525,0.402-1.124,0.402-1.798v-0.06
		c0-1.287-0.467-2.293-1.401-3.016c-0.933-0.723-2.244-1.084-3.932-1.084h-6.435v8.439H274.772z"/>
</g>
<g>
	<path fill="#FFFFFF" d="M221.588,68.505c-2.811,0-5.367-0.509-7.667-1.528c-2.301-1.018-4.277-2.397-5.928-4.136
		c-1.652-1.739-2.924-3.759-3.82-6.06c-0.896-2.301-1.344-4.716-1.344-7.246V49.43c0-2.529,0.456-4.953,1.37-7.272
		c0.913-2.319,2.195-4.347,3.847-6.086c1.651-1.739,3.636-3.126,5.954-4.163c2.319-1.036,4.882-1.554,7.693-1.554
		c2.81,0,5.366,0.51,7.667,1.528c2.301,1.019,4.276,2.397,5.928,4.136c1.651,1.739,2.925,3.76,3.82,6.06
		c0.896,2.301,1.344,4.716,1.344,7.246c0.035,0.036,0.035,0.071,0,0.105c0,2.529-0.457,4.953-1.37,7.272
		c-0.914,2.318-2.196,4.347-3.847,6.086c-1.652,1.739-3.636,3.127-5.954,4.163C226.963,67.987,224.398,68.505,221.588,68.505z
		 M221.693,64.659c2.108,0,4.048-0.395,5.823-1.186c1.774-0.79,3.293-1.87,4.558-3.241s2.257-2.968,2.977-4.795
		c0.72-1.826,1.08-3.794,1.08-5.902V49.43c0-2.108-0.36-4.084-1.08-5.928c-0.72-1.845-1.731-3.451-3.03-4.822
		c-1.3-1.37-2.837-2.459-4.611-3.267c-1.774-0.808-3.715-1.212-5.823-1.212c-2.108,0-4.049,0.395-5.823,1.186
		c-1.774,0.791-3.293,1.871-4.558,3.241c-1.264,1.37-2.258,2.969-2.977,4.795c-0.72,1.827-1.08,3.794-1.08,5.902v0.105
		c0,2.108,0.36,4.084,1.08,5.928c0.719,1.844,1.73,3.452,3.03,4.821c1.299,1.37,2.836,2.459,4.611,3.267
		C217.644,64.255,219.586,64.659,221.693,64.659z"/>
</g>
</svg>
