<?xml version="1.0" encoding="utf-8"?>
<!-- Generator: Adobe Illustrator 17.0.0, SVG Export Plug-In . SVG Version: 6.00 Build 0)  -->
<!DOCTYPE svg PUBLIC "-//W3C//DTD SVG 1.1//EN" "http://www.w3.org/Graphics/SVG/1.1/DTD/svg11.dtd">
<svg version="1.1" id="Layer_1" xmlns="http://www.w3.org/2000/svg" xmlns:xlink="http://www.w3.org/1999/xlink" x="0px" y="0px"
	 width="300px" height="125px" viewBox="0 0 300 125" enable-background="new 0 0 300 125" xml:space="preserve">
<rect fill="#3D79FF" width="300" height="125"/>
<g>
	<path fill="#FFFFFF" d="M164.335,34.834h-12.383v-3.847h28.929v3.847h-12.384v33.039h-4.163V34.834z"/>
	<path fill="#FFFFFF" d="M189.101,30.987h4.163v36.886h-4.163V30.987z"/>
	<path fill="#FFFFFF" d="M249.558,30.987h3.9l23.238,29.562V30.987h4.058v36.886h-3.32l-23.818-30.247v30.247h-4.058V30.987z"/>
</g>
<g>
	<path fill="#FFFFFF" d="M18.632,30.987h26.663v3.741h-22.5v12.699h20.129v3.741H22.794v12.963h22.764v3.741H18.632V30.987z"/>
	<path fill="#FFFFFF" d="M53.937,30.987h4.216l13.437,20.129l13.437-20.129h4.216v36.886h-4.163V37.996l-13.437,19.76h-0.211
		L57.994,38.048v29.825h-4.057V30.987z"/>
</g>
<g>
	<g>
		<path fill="#FFFFFF" d="M108.617,35.809c2.391,0,4.337,1.834,4.337,4.337h4.449c0-5.005-3.941-8.785-8.785-8.785
			c-4.844,0-8.785,3.78-8.785,8.785h4.449C104.281,37.643,106.226,35.809,108.617,35.809z"/>
	</g>
	<g>
		<path fill="#FFFFFF" d="M136.747,35.809c2.391,0,4.337,1.834,4.337,4.337h4.449c0-5.005-3.941-8.785-8.785-8.785
			c-4.844,0-8.785,3.78-8.785,8.785h4.449C132.411,37.643,134.356,35.809,136.747,35.809z"/>
	</g>
	<g>
		<path fill="#FFFFFF" d="M122.604,67.949c8.606,0,16.854-4.401,21.577-11.709l-3.737-2.414c-4.336,6.71-12.271,10.456-20.211,9.539
			c-6.19-0.714-11.914-4.28-15.312-9.539l-3.736,2.414c4.112,6.364,11.043,10.679,18.538,11.544
			C120.685,67.895,121.646,67.949,122.604,67.949z"/>
	</g>
</g>
<g>
	<path fill="#FFFFFF" d="M158,77.844h8.944c1.287,0,2.432,0.183,3.432,0.55s1.828,0.876,2.482,1.53
		c0.515,0.515,0.911,1.12,1.189,1.813c0.277,0.694,0.416,1.457,0.416,2.288v0.059c0,0.872-0.139,1.649-0.416,2.333
		c-0.278,0.683-0.669,1.278-1.174,1.783c-0.505,0.505-1.105,0.921-1.798,1.248c-0.694,0.327-1.447,0.56-2.258,0.698l6.389,8.499
		h-2.883l-6.032-8.083h-0.059h-5.884v8.083H158V77.844z M166.753,88.453c0.774,0,1.489-0.099,2.145-0.297
		c0.655-0.198,1.222-0.48,1.699-0.847c0.476-0.366,0.848-0.812,1.117-1.337c0.268-0.525,0.402-1.124,0.402-1.798v-0.06
		c0-1.287-0.467-2.293-1.401-3.016c-0.933-0.723-2.244-1.084-3.932-1.084h-6.435v8.439H166.753z"/>
	<path fill="#FFFFFF" d="M179.485,77.844h15.036v2.11h-12.689v7.162h11.352v2.11h-11.352v7.31h12.837v2.11h-15.185V77.844z"/>
	<path fill="#FFFFFF" d="M207.091,77.695h2.199l9.479,20.95h-2.526l-2.437-5.498h-11.322l-2.466,5.498h-2.407L207.091,77.695z
		 M212.886,91.038l-4.725-10.609l-4.754,10.609H212.886z"/>
	<path fill="#FFFFFF" d="M222.871,77.844h7.221c1.624,0,3.115,0.263,4.472,0.788c1.357,0.525,2.526,1.253,3.507,2.184
		c0.98,0.931,1.738,2.026,2.273,3.283c0.535,1.258,0.802,2.621,0.802,4.086v0.059c0,1.466-0.267,2.833-0.802,4.101
		c-0.535,1.268-1.293,2.368-2.273,3.299c-0.981,0.931-2.15,1.664-3.507,2.199c-1.357,0.535-2.848,0.802-4.472,0.802h-7.221V77.844z
		 M230.092,96.476c1.307,0,2.496-0.208,3.566-0.624c1.07-0.416,1.976-0.991,2.719-1.724c0.743-0.733,1.317-1.599,1.724-2.6
		c0.406-1,0.609-2.075,0.609-3.224v-0.059c0-1.149-0.204-2.224-0.609-3.224c-0.407-1-0.981-1.872-1.724-2.615
		c-0.743-0.743-1.649-1.327-2.719-1.753c-1.07-0.426-2.258-0.639-3.566-0.639h-4.874v16.463H230.092z"/>
	<path fill="#FFFFFF" d="M246.109,77.844h15.036v2.11h-12.689v7.162h11.352v2.11h-11.352v7.31h12.837v2.11h-15.185V77.844z"/>
	<path fill="#FFFFFF" d="M266.019,77.844h8.944c1.287,0,2.432,0.183,3.432,0.55c1,0.367,1.828,0.876,2.482,1.53
		c0.515,0.515,0.911,1.12,1.189,1.813c0.277,0.694,0.416,1.457,0.416,2.288v0.059c0,0.872-0.139,1.649-0.416,2.333
		c-0.278,0.683-0.669,1.278-1.174,1.783c-0.505,0.505-1.105,0.921-1.798,1.248c-0.694,0.327-1.447,0.56-2.258,0.698l6.389,8.499
		h-2.883l-6.032-8.083h-0.059h-5.884v8.083h-2.347V77.844z M274.772,88.453c0.774,0,1.489-0.099,2.145-0.297
		c0.655-0.198,1.222-0.48,1.699-0.847c0.476-0.366,0.848-0.812,1.117-1.337c0.268-0.525,0.402-1.124,0.402-1.798v-0.06
		c0-1.287-0.467-2.293-1.401-3.016c-0.933-0.723-2.244-1.084-3.932-1.084h-6.435v8.439H274.772z"/>
</g>
<g>
	<path fill="#FFFFFF" d="M17.918,77.843h5.373v0.754h-4.534v2.559h4.056v0.754h-4.056v2.612h4.587v0.754h-5.426V77.843z"/>
	<path fill="#FFFFFF" d="M25.425,79.786h0.817v0.924c0.092-0.134,0.193-0.265,0.303-0.393c0.11-0.127,0.235-0.239,0.377-0.334
		s0.301-0.172,0.478-0.228s0.382-0.085,0.616-0.085c0.446,0,0.814,0.105,1.104,0.313c0.29,0.209,0.51,0.469,0.658,0.78
		c0.099-0.149,0.21-0.29,0.334-0.425c0.124-0.134,0.264-0.251,0.419-0.35c0.156-0.099,0.331-0.177,0.526-0.234
		c0.195-0.057,0.412-0.085,0.653-0.085c0.637,0,1.136,0.196,1.497,0.589c0.361,0.393,0.541,0.933,0.541,1.619v3.398h-0.817v-3.199
		c0-0.53-0.126-0.938-0.377-1.224c-0.251-0.286-0.6-0.429-1.046-0.429c-0.205,0-0.4,0.037-0.584,0.111
		c-0.184,0.074-0.345,0.183-0.483,0.328c-0.138,0.145-0.248,0.323-0.329,0.535c-0.081,0.212-0.122,0.452-0.122,0.721v3.157h-0.807
		v-3.221c0-0.515-0.126-0.916-0.377-1.202c-0.251-0.286-0.596-0.429-1.035-0.429c-0.22,0-0.421,0.042-0.605,0.127
		c-0.184,0.085-0.345,0.205-0.483,0.36c-0.138,0.155-0.246,0.337-0.324,0.546s-0.117,0.44-0.117,0.694v3.125h-0.817V79.786z"/>
	<path fill="#FFFFFF" d="M38.56,85.403c-0.41,0-0.789-0.076-1.136-0.228c-0.347-0.152-0.648-0.357-0.903-0.616
		c-0.255-0.258-0.453-0.559-0.595-0.903c-0.142-0.343-0.212-0.71-0.212-1.099v-0.021c0-0.389,0.071-0.757,0.212-1.104
		s0.34-0.651,0.595-0.913c0.255-0.262,0.558-0.469,0.908-0.621c0.35-0.152,0.734-0.228,1.152-0.228c0.41,0,0.791,0.076,1.141,0.228
		c0.35,0.153,0.653,0.358,0.908,0.616c0.255,0.258,0.453,0.559,0.595,0.903c0.141,0.344,0.212,0.71,0.212,1.099v0.021
		c0,0.39-0.073,0.758-0.218,1.104c-0.145,0.347-0.345,0.651-0.6,0.913c-0.255,0.262-0.559,0.469-0.913,0.621
		C39.352,85.327,38.97,85.403,38.56,85.403z M38.581,84.671c0.297,0,0.57-0.057,0.818-0.17c0.248-0.114,0.46-0.266,0.637-0.457
		c0.177-0.192,0.315-0.414,0.414-0.669c0.099-0.255,0.149-0.527,0.149-0.818v-0.021c0-0.297-0.052-0.575-0.154-0.834
		c-0.103-0.258-0.246-0.485-0.43-0.679s-0.4-0.348-0.648-0.462c-0.248-0.113-0.517-0.17-0.807-0.17c-0.297,0-0.57,0.057-0.818,0.17
		c-0.248,0.114-0.458,0.266-0.632,0.457c-0.173,0.192-0.31,0.416-0.409,0.674s-0.148,0.533-0.148,0.823v0.021
		c0,0.297,0.051,0.575,0.154,0.834c0.102,0.258,0.244,0.483,0.424,0.674c0.181,0.191,0.395,0.343,0.643,0.457
		C38.022,84.614,38.291,84.671,38.581,84.671z"/>
	<path fill="#FFFFFF" d="M45.281,85.372c-0.22,0-0.425-0.029-0.616-0.085c-0.191-0.057-0.356-0.147-0.494-0.271
		c-0.138-0.124-0.246-0.285-0.324-0.483c-0.078-0.198-0.117-0.436-0.117-0.712v-3.313h-0.764v-0.722h0.764V78.13h0.817v1.656h1.741
		v0.722h-1.741v3.198c0,0.339,0.085,0.575,0.255,0.71c0.17,0.134,0.393,0.201,0.669,0.201c0.141,0,0.274-0.013,0.398-0.04
		c0.124-0.026,0.257-0.074,0.398-0.14v0.7c-0.142,0.078-0.292,0.137-0.451,0.176C45.658,85.352,45.479,85.372,45.281,85.372z"/>
	<path fill="#FFFFFF" d="M48.286,77.684h0.934v0.903h-0.934V77.684z M48.339,79.786h0.817v5.49h-0.817V79.786z"/>
	<path fill="#FFFFFF" d="M54.094,85.403c-0.41,0-0.789-0.076-1.136-0.228c-0.347-0.152-0.648-0.357-0.903-0.616
		C51.8,84.301,51.602,84,51.46,83.657c-0.142-0.343-0.212-0.71-0.212-1.099v-0.021c0-0.389,0.071-0.757,0.212-1.104
		s0.34-0.651,0.595-0.913c0.255-0.262,0.558-0.469,0.908-0.621c0.35-0.152,0.734-0.228,1.152-0.228c0.41,0,0.791,0.076,1.141,0.228
		c0.35,0.153,0.653,0.358,0.908,0.616c0.255,0.258,0.453,0.559,0.595,0.903c0.141,0.344,0.212,0.71,0.212,1.099v0.021
		c0,0.39-0.073,0.758-0.218,1.104c-0.145,0.347-0.345,0.651-0.6,0.913c-0.255,0.262-0.559,0.469-0.913,0.621
		S54.504,85.403,54.094,85.403z M54.115,84.671c0.297,0,0.57-0.057,0.818-0.17c0.248-0.114,0.46-0.266,0.637-0.457
		c0.177-0.192,0.315-0.414,0.414-0.669c0.099-0.255,0.149-0.527,0.149-0.818v-0.021c0-0.297-0.052-0.575-0.154-0.834
		c-0.103-0.258-0.246-0.485-0.43-0.679c-0.184-0.195-0.4-0.348-0.648-0.462c-0.248-0.113-0.517-0.17-0.807-0.17
		c-0.297,0-0.57,0.057-0.818,0.17c-0.248,0.114-0.458,0.266-0.632,0.457c-0.173,0.192-0.31,0.416-0.409,0.674
		c-0.099,0.258-0.148,0.533-0.148,0.823v0.021c0,0.297,0.051,0.575,0.154,0.834c0.102,0.258,0.244,0.483,0.424,0.674
		c0.181,0.191,0.395,0.343,0.643,0.457C53.556,84.614,53.825,84.671,54.115,84.671z"/>
	<path fill="#FFFFFF" d="M58.978,79.786h0.817v0.955c0.184-0.297,0.425-0.55,0.722-0.759c0.297-0.209,0.683-0.313,1.157-0.313
		c0.333,0,0.628,0.053,0.887,0.159c0.258,0.106,0.478,0.257,0.658,0.452c0.181,0.195,0.319,0.426,0.414,0.695
		c0.095,0.269,0.143,0.566,0.143,0.892v3.409H62.96v-3.199c0-0.509-0.131-0.912-0.393-1.208c-0.262-0.297-0.637-0.445-1.126-0.445
		c-0.234,0-0.451,0.041-0.653,0.122c-0.202,0.081-0.377,0.198-0.525,0.35s-0.264,0.334-0.345,0.546
		c-0.081,0.212-0.122,0.445-0.122,0.699v3.136h-0.817V79.786z"/>
	<path fill="#FFFFFF" d="M67.865,85.382c-0.397,0-0.796-0.072-1.2-0.217c-0.403-0.145-0.761-0.341-1.072-0.589l0.414-0.584
		c0.297,0.227,0.607,0.4,0.929,0.52c0.322,0.12,0.646,0.181,0.972,0.181c0.333,0,0.605-0.078,0.817-0.234
		c0.212-0.155,0.319-0.368,0.319-0.637V83.8c0-0.134-0.037-0.251-0.111-0.351c-0.074-0.099-0.175-0.185-0.303-0.26
		c-0.127-0.074-0.274-0.139-0.441-0.196c-0.166-0.057-0.338-0.11-0.515-0.159c-0.212-0.064-0.426-0.133-0.642-0.207
		c-0.216-0.075-0.41-0.168-0.584-0.282c-0.174-0.113-0.315-0.255-0.425-0.425c-0.11-0.17-0.165-0.383-0.165-0.637v-0.021
		c0-0.233,0.046-0.447,0.138-0.642c0.092-0.195,0.221-0.361,0.388-0.499c0.166-0.138,0.364-0.244,0.595-0.319
		c0.23-0.074,0.479-0.111,0.749-0.111c0.34,0,0.683,0.055,1.03,0.165c0.347,0.11,0.662,0.256,0.945,0.441l-0.372,0.616
		c-0.255-0.163-0.522-0.292-0.802-0.387c-0.28-0.095-0.554-0.143-0.823-0.143c-0.326,0-0.584,0.076-0.775,0.228
		c-0.191,0.152-0.287,0.341-0.287,0.568v0.021c0,0.128,0.039,0.239,0.117,0.335s0.182,0.179,0.313,0.249
		c0.131,0.071,0.281,0.135,0.451,0.192c0.17,0.057,0.347,0.113,0.531,0.17c0.212,0.064,0.423,0.135,0.632,0.212
		c0.209,0.078,0.398,0.177,0.568,0.297c0.17,0.121,0.306,0.266,0.409,0.435c0.102,0.17,0.154,0.379,0.154,0.627v0.021
		c0,0.262-0.052,0.493-0.154,0.695c-0.103,0.201-0.241,0.373-0.414,0.515c-0.174,0.142-0.379,0.25-0.616,0.324
		C68.398,85.345,68.141,85.382,67.865,85.382z"/>
	<path fill="#FFFFFF" d="M77.219,85.393c-0.255,0-0.506-0.036-0.754-0.106c-0.248-0.07-0.467-0.178-0.659-0.324
		c-0.191-0.145-0.345-0.324-0.462-0.536c-0.117-0.212-0.175-0.46-0.175-0.743v-0.021c0-0.297,0.057-0.558,0.17-0.78
		c0.113-0.223,0.274-0.409,0.483-0.558c0.209-0.149,0.457-0.262,0.743-0.34c0.287-0.078,0.603-0.117,0.95-0.117
		c0.354,0,0.66,0.021,0.919,0.064c0.258,0.043,0.511,0.099,0.759,0.17v-0.169c0-0.485-0.142-0.852-0.424-1.102
		c-0.283-0.25-0.683-0.375-1.2-0.375c-0.326,0-0.621,0.036-0.887,0.106c-0.266,0.071-0.526,0.167-0.78,0.287l-0.244-0.673
		c0.304-0.144,0.612-0.258,0.924-0.345c0.311-0.086,0.669-0.13,1.072-0.13c0.779,0,1.37,0.202,1.773,0.605
		c0.382,0.383,0.573,0.92,0.573,1.614v3.355h-0.807v-0.818c-0.191,0.248-0.448,0.465-0.77,0.653S77.701,85.393,77.219,85.393z
		 M77.385,84.724c0.254,0,0.49-0.035,0.709-0.106c0.219-0.07,0.411-0.171,0.577-0.301c0.166-0.131,0.296-0.285,0.391-0.465
		c0.095-0.179,0.143-0.379,0.143-0.597v-0.508c-0.205-0.056-0.437-0.109-0.698-0.159c-0.261-0.049-0.561-0.074-0.9-0.074
		c-0.508,0-0.901,0.1-1.18,0.301c-0.279,0.2-0.418,0.466-0.418,0.797v0.021c0,0.169,0.037,0.322,0.111,0.459
		c0.074,0.137,0.175,0.252,0.302,0.344c0.127,0.092,0.273,0.162,0.439,0.211C77.027,84.699,77.201,84.724,77.385,84.724z"/>
	<path fill="#FFFFFF" d="M82.263,79.786h0.817v1.433c0.099-0.227,0.223-0.435,0.372-0.626c0.148-0.192,0.319-0.356,0.51-0.494
		c0.191-0.138,0.4-0.243,0.626-0.313c0.226-0.071,0.471-0.103,0.733-0.095v0.881h-0.064c-0.297,0-0.579,0.053-0.844,0.159
		c-0.266,0.106-0.497,0.266-0.696,0.478c-0.198,0.212-0.354,0.476-0.467,0.791c-0.113,0.315-0.17,0.678-0.17,1.088v2.188h-0.817
		V79.786z"/>
	<path fill="#FFFFFF" d="M87.582,82.866c0.028,0.29,0.099,0.549,0.212,0.775c0.113,0.227,0.258,0.418,0.435,0.573
		c0.177,0.156,0.375,0.274,0.595,0.356c0.22,0.082,0.449,0.122,0.69,0.122c0.383,0,0.71-0.071,0.982-0.212
		c0.272-0.142,0.522-0.329,0.749-0.563l0.51,0.457c-0.276,0.312-0.591,0.561-0.945,0.749c-0.354,0.188-0.793,0.282-1.317,0.282
		c-0.375,0-0.729-0.069-1.062-0.207c-0.333-0.138-0.623-0.333-0.871-0.584s-0.444-0.554-0.589-0.908
		c-0.145-0.353-0.218-0.743-0.218-1.168c0-0.396,0.065-0.77,0.196-1.12c0.131-0.351,0.313-0.655,0.547-0.913
		c0.234-0.258,0.511-0.462,0.834-0.61c0.322-0.149,0.674-0.223,1.056-0.223c0.404,0,0.764,0.076,1.083,0.228
		c0.319,0.153,0.587,0.359,0.807,0.621c0.219,0.262,0.386,0.57,0.499,0.924c0.113,0.354,0.17,0.733,0.17,1.137
		c0,0.035,0,0.076,0,0.122s-0.004,0.101-0.011,0.165H87.582z M91.118,82.197c-0.021-0.246-0.074-0.48-0.159-0.702
		c-0.085-0.222-0.2-0.417-0.345-0.586s-0.322-0.302-0.531-0.401c-0.209-0.098-0.448-0.148-0.717-0.148
		c-0.234,0-0.453,0.046-0.658,0.137c-0.206,0.092-0.386,0.22-0.542,0.385c-0.156,0.166-0.285,0.361-0.387,0.586
		c-0.103,0.225-0.168,0.468-0.196,0.728H91.118z"/>
	<path fill="#FFFFFF" d="M99.262,85.393c-0.255,0-0.506-0.036-0.754-0.106c-0.248-0.07-0.467-0.178-0.659-0.324
		c-0.191-0.145-0.345-0.324-0.462-0.536c-0.117-0.212-0.175-0.46-0.175-0.743v-0.021c0-0.297,0.057-0.558,0.17-0.78
		c0.113-0.223,0.274-0.409,0.483-0.558c0.209-0.149,0.457-0.262,0.743-0.34c0.287-0.078,0.603-0.117,0.95-0.117
		c0.354,0,0.66,0.021,0.919,0.064c0.258,0.043,0.511,0.099,0.759,0.17v-0.169c0-0.485-0.142-0.852-0.424-1.102
		c-0.283-0.25-0.683-0.375-1.2-0.375c-0.326,0-0.621,0.036-0.887,0.106c-0.266,0.071-0.526,0.167-0.78,0.287l-0.244-0.673
		c0.304-0.144,0.612-0.258,0.924-0.345c0.311-0.086,0.669-0.13,1.072-0.13c0.779,0,1.37,0.202,1.773,0.605
		c0.382,0.383,0.573,0.92,0.573,1.614v3.355h-0.807v-0.818c-0.191,0.248-0.448,0.465-0.77,0.653S99.743,85.393,99.262,85.393z
		 M99.427,84.724c0.254,0,0.49-0.035,0.709-0.106c0.219-0.07,0.411-0.171,0.577-0.301c0.166-0.131,0.296-0.285,0.391-0.465
		c0.095-0.179,0.143-0.379,0.143-0.597v-0.508c-0.205-0.056-0.437-0.109-0.698-0.159c-0.261-0.049-0.561-0.074-0.9-0.074
		c-0.508,0-0.901,0.1-1.18,0.301c-0.279,0.2-0.418,0.466-0.418,0.797v0.021c0,0.169,0.037,0.322,0.111,0.459
		c0.074,0.137,0.175,0.252,0.302,0.344c0.127,0.092,0.273,0.162,0.439,0.211S99.244,84.724,99.427,84.724z"/>
	<path fill="#FFFFFF" d="M107.555,79.786h0.871l1.444,4.406l1.476-4.428h0.679l1.487,4.428l1.444-4.406h0.85l-1.933,5.532h-0.711
		l-1.476-4.332l-1.487,4.332h-0.722L107.555,79.786z"/>
	<path fill="#FFFFFF" d="M117.716,77.684h0.934v0.903h-0.934V77.684z M117.769,79.786h0.817v5.49h-0.817V79.786z"/>
	<path fill="#FFFFFF" d="M121.018,79.786h0.817v0.955c0.184-0.297,0.425-0.55,0.722-0.759c0.297-0.209,0.683-0.313,1.157-0.313
		c0.333,0,0.628,0.053,0.887,0.159c0.258,0.106,0.478,0.257,0.658,0.452c0.181,0.195,0.319,0.426,0.414,0.695
		c0.095,0.269,0.143,0.566,0.143,0.892v3.409H125v-3.199c0-0.509-0.131-0.912-0.393-1.208c-0.262-0.297-0.637-0.445-1.126-0.445
		c-0.234,0-0.451,0.041-0.653,0.122c-0.202,0.081-0.377,0.198-0.525,0.35c-0.149,0.152-0.264,0.334-0.345,0.546
		c-0.081,0.212-0.122,0.445-0.122,0.699v3.136h-0.817V79.786z"/>
	<path fill="#FFFFFF" d="M130.394,85.393c-0.333,0-0.655-0.064-0.966-0.191c-0.311-0.128-0.591-0.313-0.839-0.558
		c-0.248-0.244-0.446-0.542-0.595-0.892c-0.149-0.351-0.223-0.752-0.223-1.205v-0.021c0-0.446,0.074-0.846,0.223-1.2
		c0.148-0.354,0.347-0.653,0.595-0.897c0.248-0.244,0.527-0.432,0.839-0.563c0.311-0.131,0.634-0.196,0.966-0.196
		c0.255,0,0.488,0.032,0.701,0.095c0.212,0.064,0.403,0.149,0.573,0.255c0.17,0.106,0.324,0.23,0.462,0.372
		c0.138,0.142,0.26,0.29,0.366,0.446v-3.313h0.817v7.751h-0.817v-1.104c-0.113,0.163-0.239,0.318-0.377,0.467
		c-0.138,0.149-0.292,0.28-0.462,0.393c-0.17,0.113-0.359,0.202-0.568,0.266S130.648,85.393,130.394,85.393z M130.543,84.66
		c0.255,0,0.501-0.052,0.738-0.154c0.237-0.103,0.449-0.248,0.637-0.435c0.187-0.188,0.336-0.41,0.446-0.669
		s0.165-0.547,0.165-0.865v-0.021c0-0.319-0.055-0.607-0.165-0.865s-0.258-0.48-0.446-0.664c-0.188-0.184-0.4-0.327-0.637-0.43
		c-0.237-0.103-0.483-0.154-0.738-0.154c-0.269,0-0.521,0.048-0.754,0.143c-0.234,0.096-0.437,0.234-0.611,0.414
		c-0.173,0.181-0.311,0.402-0.414,0.663c-0.103,0.262-0.154,0.559-0.154,0.892v0.021c0,0.326,0.051,0.62,0.154,0.881
		c0.103,0.262,0.242,0.485,0.419,0.669c0.177,0.184,0.383,0.325,0.616,0.425C130.033,84.611,130.28,84.66,130.543,84.66z"/>
	<path fill="#FFFFFF" d="M138.177,85.403c-0.41,0-0.789-0.076-1.136-0.228c-0.347-0.152-0.648-0.357-0.903-0.616
		c-0.255-0.258-0.453-0.559-0.595-0.903c-0.142-0.343-0.212-0.71-0.212-1.099v-0.021c0-0.389,0.071-0.757,0.212-1.104
		c0.142-0.347,0.34-0.651,0.595-0.913c0.255-0.262,0.558-0.469,0.908-0.621c0.35-0.152,0.734-0.228,1.152-0.228
		c0.411,0,0.791,0.076,1.141,0.228c0.35,0.153,0.653,0.358,0.908,0.616c0.255,0.258,0.453,0.559,0.595,0.903
		c0.141,0.344,0.212,0.71,0.212,1.099v0.021c0,0.39-0.073,0.758-0.218,1.104c-0.145,0.347-0.345,0.651-0.6,0.913
		c-0.255,0.262-0.559,0.469-0.913,0.621S138.587,85.403,138.177,85.403z M138.198,84.671c0.297,0,0.57-0.057,0.818-0.17
		c0.248-0.114,0.46-0.266,0.637-0.457c0.177-0.192,0.315-0.414,0.414-0.669c0.099-0.255,0.149-0.527,0.149-0.818v-0.021
		c0-0.297-0.052-0.575-0.154-0.834c-0.103-0.258-0.246-0.485-0.43-0.679c-0.184-0.195-0.4-0.348-0.648-0.462
		c-0.248-0.113-0.517-0.17-0.807-0.17c-0.297,0-0.57,0.057-0.818,0.17c-0.248,0.114-0.458,0.266-0.632,0.457
		c-0.173,0.192-0.31,0.416-0.409,0.674c-0.099,0.258-0.148,0.533-0.148,0.823v0.021c0,0.297,0.051,0.575,0.154,0.834
		c0.102,0.258,0.244,0.483,0.424,0.674c0.181,0.191,0.395,0.343,0.643,0.457C137.638,84.614,137.907,84.671,138.198,84.671z"/>
	<path fill="#FFFFFF" d="M142.594,79.786h0.871l1.443,4.406l1.476-4.428h0.679l1.487,4.428l1.443-4.406h0.85l-1.932,5.532H148.2
		l-1.475-4.332l-1.487,4.332h-0.721L142.594,79.786z"/>
	<path fill="#FFFFFF" d="M75.404,90.426h0.934v0.903h-0.934V90.426z M75.457,92.528h0.817v5.49h-0.817V92.528z"/>
	<path fill="#FFFFFF" d="M78.706,92.528h0.817v0.955c0.184-0.297,0.425-0.55,0.722-0.759c0.297-0.209,0.683-0.313,1.157-0.313
		c0.333,0,0.628,0.053,0.887,0.159c0.258,0.106,0.478,0.257,0.658,0.452c0.181,0.195,0.319,0.426,0.414,0.695
		c0.095,0.269,0.143,0.566,0.143,0.892v3.409h-0.817v-3.199c0-0.509-0.131-0.912-0.393-1.208c-0.262-0.297-0.637-0.445-1.126-0.445
		c-0.234,0-0.451,0.041-0.653,0.122c-0.202,0.081-0.377,0.198-0.525,0.35s-0.264,0.334-0.345,0.546
		c-0.081,0.212-0.122,0.445-0.122,0.699v3.136h-0.817V92.528z"/>
	<path fill="#FFFFFF" d="M87.614,98.114c-0.22,0-0.425-0.029-0.616-0.085c-0.191-0.057-0.356-0.147-0.494-0.271
		c-0.138-0.124-0.246-0.285-0.324-0.483c-0.078-0.198-0.117-0.436-0.117-0.712v-3.313H85.3v-0.722h0.764v-1.656h0.817v1.656h1.741
		v0.722h-1.741v3.198c0,0.339,0.085,0.575,0.255,0.71c0.17,0.134,0.393,0.201,0.669,0.201c0.141,0,0.274-0.013,0.398-0.04
		c0.124-0.026,0.257-0.074,0.398-0.14v0.7c-0.142,0.078-0.292,0.137-0.451,0.176C87.991,98.094,87.812,98.114,87.614,98.114z"/>
	<path fill="#FFFFFF" d="M93.104,98.145c-0.41,0-0.789-0.076-1.136-0.228c-0.347-0.152-0.648-0.357-0.903-0.616
		c-0.255-0.258-0.453-0.559-0.595-0.903c-0.142-0.343-0.212-0.71-0.212-1.099v-0.021c0-0.389,0.071-0.757,0.212-1.104
		s0.34-0.651,0.595-0.913c0.255-0.262,0.558-0.469,0.908-0.621c0.35-0.152,0.734-0.228,1.152-0.228c0.41,0,0.791,0.076,1.141,0.228
		c0.35,0.153,0.653,0.358,0.908,0.616c0.255,0.258,0.453,0.559,0.595,0.903c0.141,0.344,0.212,0.71,0.212,1.099v0.021
		c0,0.39-0.073,0.758-0.218,1.104c-0.145,0.347-0.345,0.651-0.6,0.913c-0.255,0.262-0.559,0.469-0.913,0.621
		C93.897,98.069,93.514,98.145,93.104,98.145z M93.125,97.413c0.297,0,0.57-0.057,0.818-0.17c0.248-0.114,0.46-0.266,0.637-0.457
		c0.177-0.192,0.315-0.414,0.414-0.669c0.099-0.255,0.149-0.527,0.149-0.818v-0.021c0-0.297-0.052-0.575-0.154-0.834
		c-0.103-0.258-0.246-0.485-0.43-0.679s-0.4-0.348-0.648-0.462c-0.248-0.113-0.517-0.17-0.807-0.17c-0.297,0-0.57,0.057-0.818,0.17
		c-0.248,0.114-0.458,0.266-0.632,0.457c-0.173,0.192-0.31,0.416-0.409,0.674s-0.148,0.533-0.148,0.823v0.021
		c0,0.297,0.051,0.575,0.154,0.834c0.102,0.258,0.244,0.483,0.424,0.674c0.181,0.191,0.395,0.343,0.643,0.457
		C92.566,97.356,92.835,97.413,93.125,97.413z"/>
	<path fill="#FFFFFF" d="M103.541,98.114c-0.22,0-0.425-0.029-0.616-0.085c-0.191-0.057-0.356-0.147-0.494-0.271
		c-0.138-0.124-0.246-0.285-0.324-0.483c-0.078-0.198-0.117-0.436-0.117-0.712v-3.313h-0.764v-0.722h0.764v-1.656h0.817v1.656h1.741
		v0.722h-1.741v3.198c0,0.339,0.085,0.575,0.255,0.71c0.17,0.134,0.393,0.201,0.669,0.201c0.141,0,0.274-0.013,0.398-0.04
		c0.124-0.026,0.257-0.074,0.398-0.14v0.7c-0.142,0.078-0.292,0.137-0.451,0.176C103.918,98.094,103.739,98.114,103.541,98.114z"/>
	<path fill="#FFFFFF" d="M106.525,90.267h0.817v3.217c0.184-0.297,0.425-0.55,0.722-0.759c0.297-0.209,0.683-0.313,1.157-0.313
		c0.333,0,0.628,0.053,0.887,0.159c0.258,0.106,0.478,0.257,0.658,0.452c0.181,0.195,0.319,0.426,0.414,0.695
		c0.095,0.269,0.143,0.566,0.143,0.892v3.409h-0.817v-3.199c0-0.509-0.131-0.912-0.393-1.208c-0.262-0.297-0.637-0.445-1.126-0.445
		c-0.234,0-0.451,0.041-0.653,0.122c-0.202,0.081-0.377,0.198-0.525,0.35c-0.149,0.152-0.264,0.334-0.345,0.546
		c-0.081,0.212-0.122,0.445-0.122,0.699v3.136h-0.817V90.267z"/>
	<path fill="#FFFFFF" d="M114.085,95.608c0.028,0.29,0.099,0.549,0.212,0.775c0.113,0.227,0.258,0.418,0.435,0.573
		c0.177,0.156,0.375,0.274,0.595,0.356c0.22,0.082,0.449,0.122,0.69,0.122c0.383,0,0.71-0.071,0.982-0.212
		c0.272-0.142,0.522-0.329,0.749-0.563l0.51,0.457c-0.276,0.312-0.591,0.561-0.945,0.749c-0.354,0.188-0.793,0.282-1.317,0.282
		c-0.375,0-0.729-0.069-1.062-0.207c-0.333-0.138-0.623-0.333-0.871-0.584c-0.248-0.251-0.444-0.554-0.589-0.908
		c-0.145-0.353-0.218-0.743-0.218-1.168c0-0.396,0.065-0.77,0.196-1.12c0.131-0.351,0.313-0.655,0.547-0.913
		c0.234-0.258,0.511-0.462,0.834-0.61c0.322-0.149,0.674-0.223,1.056-0.223c0.404,0,0.764,0.076,1.083,0.228
		c0.319,0.153,0.587,0.359,0.807,0.621c0.219,0.262,0.386,0.57,0.499,0.924c0.113,0.354,0.17,0.733,0.17,1.137
		c0,0.035,0,0.076,0,0.122c0,0.046-0.004,0.101-0.011,0.165H114.085z M117.621,94.939c-0.021-0.246-0.074-0.48-0.159-0.702
		c-0.085-0.222-0.2-0.417-0.345-0.586c-0.145-0.169-0.322-0.302-0.531-0.401c-0.209-0.098-0.448-0.148-0.717-0.148
		c-0.234,0-0.453,0.046-0.658,0.137c-0.206,0.092-0.386,0.22-0.542,0.385c-0.156,0.166-0.285,0.361-0.387,0.586
		c-0.103,0.225-0.168,0.468-0.196,0.728H117.621z"/>
	<path fill="#FFFFFF" d="M124.129,92.528h0.817v0.924c0.092-0.134,0.193-0.265,0.303-0.393c0.11-0.127,0.235-0.239,0.377-0.334
		c0.142-0.095,0.301-0.172,0.478-0.228s0.382-0.085,0.616-0.085c0.446,0,0.814,0.105,1.104,0.313c0.29,0.209,0.51,0.469,0.658,0.78
		c0.099-0.149,0.21-0.29,0.334-0.425c0.124-0.134,0.264-0.251,0.419-0.35c0.156-0.099,0.331-0.177,0.526-0.234
		c0.195-0.057,0.412-0.085,0.653-0.085c0.637,0,1.136,0.196,1.497,0.589c0.361,0.393,0.541,0.933,0.541,1.619v3.398h-0.817v-3.199
		c0-0.53-0.126-0.938-0.377-1.224c-0.251-0.286-0.6-0.429-1.046-0.429c-0.205,0-0.4,0.037-0.584,0.111
		c-0.184,0.074-0.345,0.183-0.483,0.328c-0.138,0.145-0.248,0.323-0.329,0.535c-0.081,0.212-0.122,0.452-0.122,0.721v3.157h-0.807
		v-3.221c0-0.515-0.126-0.916-0.377-1.202c-0.251-0.286-0.596-0.429-1.035-0.429c-0.22,0-0.421,0.042-0.605,0.127
		c-0.184,0.085-0.345,0.205-0.483,0.36s-0.246,0.337-0.324,0.546c-0.078,0.209-0.117,0.44-0.117,0.694v3.125h-0.817V92.528z"/>
	<path fill="#FFFFFF" d="M134.779,90.426h0.934v0.903h-0.934V90.426z M134.832,92.528h0.817v5.49h-0.817V92.528z"/>
	<path fill="#FFFFFF" d="M138.081,92.528h0.817v0.955c0.184-0.297,0.425-0.55,0.722-0.759c0.297-0.209,0.683-0.313,1.157-0.313
		c0.333,0,0.628,0.053,0.887,0.159c0.258,0.106,0.478,0.257,0.658,0.452c0.181,0.195,0.318,0.426,0.414,0.695
		c0.096,0.269,0.144,0.566,0.144,0.892v3.409h-0.818v-3.199c0-0.509-0.131-0.912-0.393-1.208c-0.262-0.297-0.637-0.445-1.126-0.445
		c-0.234,0-0.451,0.041-0.653,0.122c-0.202,0.081-0.377,0.198-0.525,0.35c-0.149,0.152-0.264,0.334-0.345,0.546
		c-0.081,0.212-0.122,0.445-0.122,0.699v3.136h-0.817V92.528z"/>
	<path fill="#FFFFFF" d="M147.456,98.135c-0.333,0-0.655-0.064-0.966-0.191c-0.312-0.128-0.591-0.313-0.839-0.558
		c-0.248-0.244-0.446-0.542-0.594-0.892c-0.149-0.351-0.223-0.752-0.223-1.205v-0.021c0-0.446,0.075-0.846,0.223-1.2
		c0.149-0.354,0.347-0.653,0.594-0.897c0.248-0.244,0.527-0.432,0.839-0.563c0.311-0.131,0.633-0.196,0.966-0.196
		c0.255,0,0.488,0.032,0.701,0.095s0.404,0.149,0.574,0.255c0.17,0.106,0.324,0.23,0.462,0.372c0.138,0.142,0.26,0.29,0.366,0.446
		v-3.313h0.818v7.751h-0.818v-1.104c-0.113,0.163-0.239,0.318-0.377,0.467c-0.138,0.149-0.292,0.28-0.462,0.393
		c-0.17,0.113-0.359,0.202-0.568,0.266C147.943,98.103,147.712,98.135,147.456,98.135z M147.605,97.402
		c0.255,0,0.501-0.052,0.738-0.154c0.237-0.103,0.449-0.248,0.637-0.435c0.187-0.188,0.336-0.41,0.446-0.669
		c0.11-0.258,0.165-0.547,0.165-0.865v-0.021c0-0.319-0.055-0.607-0.165-0.865c-0.11-0.258-0.258-0.48-0.446-0.664
		c-0.188-0.184-0.4-0.327-0.637-0.43c-0.237-0.103-0.483-0.154-0.738-0.154c-0.269,0-0.52,0.048-0.754,0.143
		c-0.234,0.096-0.437,0.234-0.611,0.414c-0.173,0.181-0.312,0.402-0.414,0.663c-0.103,0.262-0.154,0.559-0.154,0.892v0.021
		c0,0.326,0.051,0.62,0.154,0.881c0.102,0.262,0.242,0.485,0.419,0.669c0.177,0.184,0.382,0.325,0.616,0.425
		C147.096,97.353,147.343,97.402,147.605,97.402z"/>
</g>
<g>
	<path fill="#FFFFFF" d="M221.588,68.505c-2.811,0-5.367-0.509-7.667-1.528c-2.301-1.018-4.277-2.397-5.928-4.136
		c-1.652-1.739-2.924-3.759-3.82-6.06c-0.896-2.301-1.344-4.716-1.344-7.246V49.43c0-2.529,0.456-4.953,1.37-7.272
		c0.913-2.319,2.195-4.347,3.847-6.086c1.651-1.739,3.636-3.126,5.954-4.163c2.319-1.036,4.882-1.554,7.693-1.554
		c2.81,0,5.366,0.51,7.667,1.528c2.301,1.019,4.276,2.397,5.928,4.136c1.651,1.739,2.925,3.76,3.82,6.06
		c0.896,2.301,1.344,4.716,1.344,7.246c0.035,0.036,0.035,0.071,0,0.105c0,2.529-0.457,4.953-1.37,7.272
		c-0.914,2.318-2.196,4.347-3.847,6.086c-1.652,1.739-3.636,3.127-5.954,4.163C226.963,67.987,224.398,68.505,221.588,68.505z
		 M221.693,64.659c2.108,0,4.048-0.395,5.823-1.186c1.774-0.79,3.293-1.87,4.558-3.241s2.257-2.968,2.977-4.795
		c0.72-1.826,1.08-3.794,1.08-5.902V49.43c0-2.108-0.36-4.084-1.08-5.928c-0.72-1.845-1.731-3.451-3.03-4.822
		c-1.3-1.37-2.837-2.459-4.611-3.267c-1.774-0.808-3.715-1.212-5.823-1.212c-2.108,0-4.049,0.395-5.823,1.186
		c-1.774,0.791-3.293,1.871-4.558,3.241c-1.264,1.37-2.258,2.969-2.977,4.795c-0.72,1.827-1.08,3.794-1.08,5.902v0.105
		c0,2.108,0.36,4.084,1.08,5.928c0.719,1.844,1.73,3.452,3.03,4.821c1.299,1.37,2.836,2.459,4.611,3.267
		C217.644,64.255,219.586,64.659,221.693,64.659z"/>
</g>
</svg>
